<svg width="300px" height="300px" viewBox="0 0 300 300" version="1.1" xmlns="http://www.w3.org/2000/svg">
  <g id="circuit" class="path" stroke-width="1" fill-rule="evenodd" stroke-linecap="round" stroke-linejoin="round" stroke-opacity="1" stroke-dasharray="45, 45" stroke-dashoffset="180" fill="#fff" stroke="#02B3E4" style="" transform="matrix(1.254929, 0, 0, 1.265704, -38.234566, -29.935345)">
    <polyline style="fill: none; stroke: rgb(80, 196, 232); stroke-miterlimit: 10; transform-box: fill-box; transform-origin: 50% 50%;" points="43.042 131.726 70.542 131.726 70.542 145.726 264.036 145.726 264.036 128.226"/>
    <circle style="fill:#FFFFFF;stroke:#50C4E8;stroke-miterlimit:10;" cx="41.042" cy="131.726" r="3.057"/>
    <path style="fill:#FFFFFF;stroke:#50C4E8;stroke-miterlimit:10;" d="M246.588,128.226c0-1.688,1.369-3.057,3.057-3.057 s3.057,1.369,3.057,3.057c0,1.688-1.369,3.057-3.057,3.057S246.588,129.914,246.588,128.226z"/>
    <line style="fill:none;stroke:#50C4E8;stroke-miterlimit:10;" x1="96.151" y1="148.118" x2="96.151" y2="241.02"/>
    <line style="fill:none;stroke:#50C4E8;stroke-miterlimit:10;" x1="127.221" y1="148.118" x2="127.221" y2="241.02"/>
    <line style="fill:none;stroke:#50C4E8;stroke-miterlimit:10;" x1="173.151" y1="145.726" x2="173.151" y2="203.726"/>
    <line style="fill:none;stroke:#50C4E8;stroke-width:3;stroke-miterlimit:10;" x1="207.651" y1="145.726" x2="207.651" y2="241.02"/>
    <path style="fill:#FFFFFF;stroke:#50C4E8;stroke-width:3;stroke-miterlimit:10;" d="M104.651,184.476 c0-1.688,1.369-3.057,3.057-3.057s3.057,1.369,3.057,3.057s-1.369,3.057-3.057,3.057S104.651,186.164,104.651,184.476z"/>
    <path style="fill:#FFFFFF;stroke:#50C4E8;stroke-miterlimit:10;" d="M93.721,145.725c0,1.342,1.088,2.431,2.43,2.431 s2.43-1.089,2.43-2.431c0-1.341-1.088-2.43-2.43-2.43S93.721,144.385,93.721,145.725z"/>
    <path style="fill:#FFFFFF;stroke:#50C4E8;stroke-miterlimit:10;" d="M124.79,145.725c0,1.342,1.089,2.431,2.431,2.431 s2.43-1.089,2.43-2.431c0-1.341-1.088-2.43-2.43-2.43S124.79,144.385,124.79,145.725z"/>
    <path style="fill:#50C4E8;stroke:#50C4E8;stroke-width:0.8121;stroke-miterlimit:10;" d="M214.543,81.409 c0-2.761,2.238-4.999,4.999-4.999c2.761,0,4.999,2.238,4.999,4.999c0,2.761-2.238,4.999-4.999,4.999 C216.782,86.408,214.543,84.17,214.543,81.409z"/>
    <polyline style="fill:none;stroke:#50C4E8;stroke-miterlimit:10;" points="96.151,174.226 78.651,187.226 78.651,209.726     "/>
    <polyline style="fill: none; stroke: rgb(80, 196, 232); stroke-miterlimit: 10; transform-box: fill-box; transform-origin: 50% 50%;" points="95.354 206.566 103.854 217.066 103.854 233.566"/>
    <circle style="fill:#FFFFFF;stroke:#50C4E8;stroke-miterlimit:10;" cx="77.854" cy="206.566" r="3.057"/>
    <circle style="fill:#FFFFFF;stroke:#50C4E8;stroke-miterlimit:10;" cx="103.854" cy="233.566" r="3.057"/>
    <circle style="fill:#FFFFFF;stroke:#50C4E8;stroke-miterlimit:10;" cx="172.354" cy="199.316" r="3.057"/>
    <path style="fill:#FFFFFF;stroke:#50C4E8;stroke-miterlimit:10;" d="M170.094,171.17c0-1.688,1.369-3.057,3.057-3.057 s3.057,1.369,3.057,3.057s-1.369,3.057-3.057,3.057S170.094,172.857,170.094,171.17z"/>
    <path style="fill: rgb(188, 230, 245); transform-box: fill-box; transform-origin: 50% 50%;" d="M 92.56 237.86 C 92.56 236.317 93.811 235.066 95.354 235.066 C 96.897 235.066 98.148 236.317 98.148 237.86 C 98.148 239.403 96.897 240.654 95.354 240.654 C 93.811 240.654 92.56 239.403 92.56 237.86 Z"/>
    <circle style="fill:#BCE6F5;" cx="95.354" cy="247.816" r="2.794"/>
    <circle style="fill:#BCE6F5;" cx="96.151" cy="163.726" r="2.794"/>
    <path style="fill: rgb(188, 230, 245); transform-box: fill-box; transform-origin: 50% 50%;" d="M 123.629 237.86 C 123.629 236.317 124.881 235.066 126.424 235.066 C 127.967 235.066 129.217 236.317 129.217 237.86 C 129.217 239.403 127.967 240.654 126.424 240.654 C 124.881 240.654 123.629 239.403 123.629 237.86 Z"/>
    <path style="fill: rgb(188, 230, 245); transform-box: fill-box; transform-origin: 50% 50%;" d="M 123.629 199.316 C 123.629 197.773 124.881 196.522 126.424 196.522 C 127.967 196.522 129.217 197.773 129.217 199.316 C 129.217 200.859 127.967 202.11 126.424 202.11 C 124.881 202.11 123.629 200.859 123.629 199.316 Z"/>
    <polyline style="fill:none;stroke:#50C4E8;stroke-width:3;stroke-miterlimit:10;" points="135.318,145.726 135.318,178.559 &#10;      144.984,191.976 144.984,223.226     "/>
    <line style="fill:none;stroke:#50C4E8;stroke-width:3;stroke-miterlimit:10;" x1="107.707" y1="145.726" x2="107.707" y2="182.227"/>
    <circle style="fill:#FFFFFF;stroke:#50C4E8;stroke-width:3;stroke-miterlimit:10;" cx="144.187" cy="220.066" r="5.834"/>
    <path style="fill: rgb(255, 255, 255); stroke: rgb(80, 196, 232); stroke-width: 3; stroke-miterlimit: 10; transform-box: fill-box; transform-origin: 50% 50%;" d="M 201.02 230.86 C 201.02 227.639 203.631 225.026 206.854 225.026 C 210.077 225.026 212.688 227.639 212.688 230.86 C 212.688 234.081 210.077 236.694 206.854 236.694 C 203.631 236.694 201.02 234.081 201.02 230.86 Z"/>
    <line style="fill:none;stroke:#50C4E8;stroke-width:3;stroke-miterlimit:10;" x1="207.651" y1="186.476" x2="231.401" y2="209.726"/>
    <circle style="fill:#FFFFFF;stroke:#50C4E8;stroke-width:3;stroke-miterlimit:10;" cx="230.604" cy="206.566" r="4.193"/>
    <line style="fill:none;stroke:#50C4E8;stroke-miterlimit:10;" x1="90.876" y1="81.409" x2="144.21" y2="81.409"/>
    <path style="fill:#FFFFFF;stroke:#50C4E8;stroke-miterlimit:10;" d="M139.146,81.409c0-2.797,2.268-5.064,5.064-5.064 c2.797,0,5.064,2.268,5.064,5.064c0,2.797-2.268,5.064-5.064,5.064C141.414,86.473,139.146,84.206,139.146,81.409z"/>
    <path style="fill:#FFFFFF;stroke:#50C4E8;stroke-miterlimit:10;" d="M87.246,81.409c0-2.005,1.625-3.631,3.631-3.631 c2.006,0,3.631,1.625,3.631,3.631c0,2.005-1.625,3.631-3.631,3.631C88.871,85.04,87.246,83.414,87.246,81.409z"/>
    <polyline style="fill:none;stroke:#50C4E8;stroke-miterlimit:10;" points="117.543,68.876 160.542,68.876 177.042,81.409 &#10;      219.542,81.409    "/>
    <path style="fill:#FFFFFF;stroke:#50C4E8;stroke-miterlimit:10;" d="M113.913,68.876c0-2.005,1.626-3.631,3.631-3.631 s3.631,1.626,3.631,3.631c0,2.005-1.626,3.631-3.631,3.631S113.913,70.881,113.913,68.876z"/>
    <polyline style="fill:none;stroke:#50C4E8;stroke-width:3;stroke-miterlimit:10;" points="81.542,59.966 198.542,59.966 &#10;      224.875,40.518    "/>
    <path style="fill:none;stroke:#50C4E8;stroke-width:3;stroke-miterlimit:10;" d="M103.265,59.966"/>
    <path style="fill:#BCE6F5;" d="M232.428,40.52c0,4.17-3.383,7.551-7.553,7.551c-4.171,0-7.553-3.381-7.553-7.551 c0-4.171,3.382-7.554,7.553-7.554C229.045,32.966,232.428,36.349,232.428,40.52z"/>
    <path style="fill:#BCE6F5;" d="M87.246,59.967c0,2.411-1.956,4.366-4.367,4.366c-2.411,0-4.366-1.955-4.366-4.366 c0-2.412,1.955-4.368,4.366-4.368C85.29,55.599,87.246,57.555,87.246,59.967z"/>
    <path style="fill:#BCE6F5;" d="M81.412,81.41c0,2.411-1.955,4.366-4.367,4.366c-2.41,0-4.365-1.955-4.365-4.366 c0-2.412,1.955-4.368,4.365-4.368C79.457,77.042,81.412,78.998,81.412,81.41z"/>
    <path d="M 260.839 64.567 L 260.839 85.273 C 260.839 85.659 260.646 85.851 260.261 85.851 L 258.119 85.851 C 257.733 85.851 257.541 85.659 257.541 85.273 L 257.541 64.567 C 257.541 64.182 257.733 63.989 258.119 63.989 L 260.261 63.989 C 260.646 63.989 260.839 64.182 260.839 64.567 Z" style="transform-box: fill-box; transform-origin: 50% 50%;"/>
    <path d="M 151.116 126.952 L 147.478 126.952 C 145.8 126.952 144.503 126.488 143.585 125.558 C 142.667 124.629 142.208 123.337 142.208 121.682 L 142.208 110.36 C 142.208 108.683 142.667 107.385 143.585 106.467 C 144.503 105.549 145.8 105.09 147.478 105.09 L 151.116 105.09 C 152.794 105.09 154.092 105.549 155.01 106.467 C 155.928 107.385 156.387 108.683 156.387 110.36 L 156.387 111.584 C 156.387 111.992 156.194 112.196 155.809 112.196 L 153.666 112.196 C 153.28 112.196 153.089 111.992 153.089 111.584 L 153.089 110.496 C 153.089 108.819 152.273 107.98 150.641 107.98 L 147.955 107.98 C 146.323 107.98 145.507 108.819 145.507 110.496 L 145.507 121.546 C 145.507 123.223 146.323 124.062 147.955 124.062 L 150.641 124.062 C 152.273 124.062 153.089 123.224 153.089 121.546 L 153.089 118.486 C 153.089 118.259 152.964 118.146 152.715 118.146 L 149.96 118.146 C 149.575 118.146 149.383 117.954 149.383 117.568 L 149.383 115.834 C 149.383 115.449 149.575 115.256 149.96 115.256 L 155.673 115.256 C 156.149 115.256 156.387 115.494 156.387 115.97 L 156.387 121.682 C 156.387 123.337 155.922 124.629 154.992 125.558 C 154.062 126.488 152.77 126.952 151.116 126.952 Z" style="transform-box: fill-box; transform-origin: 50% 50%;"/>
    <path d="M 171.424 126.952 L 160.543 126.952 C 160.157 126.952 159.966 126.76 159.966 126.374 L 159.966 105.668 C 159.966 105.283 160.157 105.09 160.543 105.09 L 171.424 105.09 C 171.786 105.09 171.968 105.283 171.968 105.668 L 171.968 107.402 C 171.968 107.787 171.786 107.98 171.424 107.98 L 163.672 107.98 C 163.4 107.98 163.264 108.094 163.264 108.32 L 163.264 114.066 C 163.264 114.293 163.4 114.406 163.672 114.406 L 170.234 114.406 C 170.642 114.406 170.846 114.599 170.846 114.984 L 170.846 116.718 C 170.846 117.104 170.642 117.296 170.234 117.296 L 163.672 117.296 C 163.4 117.296 163.264 117.409 163.264 117.636 L 163.264 123.688 C 163.264 123.938 163.4 124.062 163.672 124.062 L 171.424 124.062 C 171.786 124.062 171.968 124.255 171.968 124.64 L 171.968 126.374 C 171.968 126.76 171.786 126.952 171.424 126.952 Z" style="transform-box: fill-box; transform-origin: 50% 50%;"/>
    <path d="M 177.928 126.952 L 175.82 126.952 C 175.434 126.952 175.243 126.76 175.243 126.374 L 175.243 105.668 C 175.243 105.283 175.434 105.09 175.82 105.09 L 177.724 105.09 C 178.086 105.09 178.336 105.215 178.472 105.464 L 186.701 120.254 L 186.837 120.254 L 186.837 105.668 C 186.837 105.283 187.029 105.09 187.415 105.09 L 189.522 105.09 C 189.908 105.09 190.1 105.283 190.1 105.668 L 190.1 126.374 C 190.1 126.76 189.908 126.952 189.522 126.952 L 187.686 126.952 C 187.324 126.952 187.029 126.771 186.802 126.408 L 178.642 111.788 L 178.506 111.788 L 178.506 126.374 C 178.506 126.76 178.313 126.952 177.928 126.952 Z" style="transform-box: fill-box; transform-origin: 50% 50%;"/>
    <path d="M 197.082 105.668 L 197.082 126.374 C 197.082 126.76 196.889 126.952 196.504 126.952 L 194.362 126.952 C 193.976 126.952 193.784 126.76 193.784 126.374 L 193.784 105.668 C 193.784 105.283 193.976 105.09 194.362 105.09 L 196.504 105.09 C 196.889 105.09 197.082 105.283 197.082 105.668 Z" style="transform-box: fill-box; transform-origin: 50% 50%;"/>
    <path d="M 92.676 126.497 L 88.732 126.497 C 87.054 126.497 85.756 126.033 84.838 125.103 C 83.92 124.174 83.461 122.882 83.461 121.227 L 83.461 109.905 C 83.461 108.228 83.92 106.93 84.838 106.012 C 85.756 105.094 87.054 104.635 88.732 104.635 L 92.676 104.635 C 94.353 104.635 95.655 105.094 96.585 106.012 C 97.515 106.93 97.98 108.228 97.98 109.905 L 97.98 121.227 C 97.98 122.882 97.515 124.174 96.585 125.103 C 95.655 126.033 94.352 126.497 92.676 126.497 Z M 89.207 123.607 L 92.165 123.607 C 93.819 123.607 94.647 122.769 94.647 121.091 L 94.647 110.041 C 94.647 108.364 93.819 107.525 92.165 107.525 L 89.207 107.525 C 87.575 107.525 86.76 108.364 86.76 110.041 L 86.76 121.091 C 86.76 122.769 87.575 123.607 89.207 123.607 Z" style="transform-box: fill-box; transform-origin: 50% 50%;"/>
    <path d="M 212.71 105.09 L 214.852 105.09 C 215.26 105.09 215.464 105.272 215.464 105.634 L 215.464 121.682 C 215.464 123.337 214.993 124.629 214.053 125.558 C 213.113 126.488 211.815 126.952 210.16 126.952 L 206.386 126.952 C 204.731 126.952 203.439 126.488 202.51 125.558 C 201.58 124.629 201.115 123.337 201.115 121.682 L 201.115 105.668 C 201.115 105.283 201.307 105.09 201.693 105.09 L 203.836 105.09 C 204.221 105.09 204.414 105.283 204.414 105.668 L 204.414 121.546 C 204.414 123.223 205.229 124.062 206.861 124.062 L 209.649 124.062 C 211.303 124.062 212.131 123.224 212.131 121.546 L 212.131 105.668 C 212.132 105.283 212.324 105.09 212.71 105.09 Z" style="transform-box: fill-box; transform-origin: 50% 50%;"/>
    <path d="M 219.366 121.648 L 219.366 120.764 C 219.366 120.379 219.558 120.186 219.944 120.186 L 222.12 120.186 C 222.505 120.186 222.698 120.379 222.698 120.764 L 222.698 121.376 C 222.698 122.328 222.907 123.014 223.327 123.433 C 223.746 123.853 224.443 124.062 225.418 124.062 L 227.764 124.062 C 228.739 124.062 229.442 123.841 229.872 123.399 C 230.303 122.957 230.518 122.238 230.518 121.24 L 230.518 120.458 C 230.518 119.733 230.241 119.161 229.685 118.741 C 229.129 118.321 228.445 118.05 227.628 117.925 C 226.811 117.8 225.916 117.625 224.942 117.398 C 223.966 117.172 223.072 116.911 222.255 116.616 C 221.44 116.322 220.753 115.766 220.198 114.95 C 219.642 114.134 219.365 113.092 219.365 111.822 L 219.365 110.394 C 219.365 108.74 219.835 107.442 220.776 106.501 C 221.716 105.561 223.014 105.09 224.669 105.09 L 228.273 105.09 C 229.95 105.09 231.258 105.561 232.2 106.501 C 233.14 107.442 233.611 108.74 233.611 110.394 L 233.611 111.142 C 233.611 111.528 233.418 111.72 233.033 111.72 L 230.857 111.72 C 230.471 111.72 230.279 111.528 230.279 111.142 L 230.279 110.7 C 230.279 109.726 230.069 109.029 229.65 108.609 C 229.23 108.19 228.533 107.98 227.558 107.98 L 225.416 107.98 C 224.441 107.98 223.744 108.201 223.325 108.643 C 222.905 109.085 222.696 109.839 222.696 110.904 L 222.696 111.958 C 222.696 112.978 223.432 113.67 224.906 114.032 C 225.563 114.191 226.283 114.327 227.065 114.44 C 227.846 114.554 228.634 114.724 229.427 114.95 C 230.221 115.177 230.946 115.477 231.604 115.851 C 232.26 116.225 232.793 116.792 233.202 117.551 C 233.61 118.311 233.814 119.234 233.814 120.322 L 233.814 121.648 C 233.814 123.303 233.343 124.601 232.403 125.541 C 231.462 126.482 230.164 126.952 228.509 126.952 L 224.701 126.952 C 223.046 126.952 221.743 126.482 220.791 125.541 C 219.842 124.601 219.366 123.303 219.366 121.648 Z" style="transform-box: fill-box; transform-origin: 50% 50%;"/>
    <path d="M 79.814 114.678 L 79.814 116.977 L 72.607 116.977 L 72.607 126.396 L 69.926 126.396 L 69.926 105.068 L 81.03 105.068 L 81.03 107.383 L 72.607 107.383 L 72.607 114.678 L 79.814 114.678 Z" style="transform-box: fill-box; transform-origin: 50% 50%;"/>
    <path d="M 111.601 125.971 L 107.807 117.343 L 104.057 117.343 L 104.057 125.971 L 101.362 125.971 L 101.362 104.643 L 107.339 104.643 C 107.946 104.639 108.552 104.693 109.149 104.803 C 109.834 104.935 110.444 105.148 110.978 105.442 C 111.385 105.666 111.758 105.947 112.085 106.277 C 112.664 106.876 113.091 107.604 113.33 108.402 C 113.498 108.932 113.608 109.517 113.66 110.155 C 113.684 110.456 113.696 110.758 113.696 111.059 C 113.7 111.664 113.631 112.268 113.492 112.856 C 113.352 113.437 113.127 113.994 112.824 114.509 C 112.249 115.485 111.387 116.26 110.356 116.728 L 114.487 125.796 L 114.487 125.971 L 111.601 125.971 Z M 104.057 106.958 L 104.057 115.044 L 107.309 115.044 C 107.715 115.048 108.119 114.994 108.51 114.882 C 109.081 114.717 109.595 114.398 109.997 113.96 C 110.44 113.475 110.745 112.878 110.879 112.234 C 110.962 111.848 111.003 111.454 111.001 111.059 C 111.007 110.538 110.951 110.019 110.835 109.511 C 110.499 108.129 109.655 107.308 108.303 107.048 C 107.965 106.986 107.623 106.956 107.28 106.958 L 104.057 106.958 Z" style="transform-box: fill-box; transform-origin: 50% 50%;"/>
    <path d="M 118.7 105.054 L 122.157 105.054 L 127.723 122.457 L 133.29 105.054 L 136.747 105.054 L 136.747 126.382 L 134.066 126.382 L 134.066 118.077 L 134.315 109.756 L 128.734 126.382 L 126.683 126.382 L 121.132 109.815 L 121.381 118.077 L 121.381 126.382 L 118.7 126.382 L 118.7 105.054 Z" style="transform-box: fill-box; transform-origin: 50% 50%;"/>
  </g>

  <style>




.path {
  animation: draw 2.5s infinite;
  animation-timing-function: linear;
}

@keyframes draw {
  0% {
  }
  100% {
    stroke-dashoffset: 0;
    stroke-opacity: 1;
  }
}
</style>
</svg>

