<svg width="761.87" height="156.451" viewBox="0 0 761.87 156.451" xmlns="http://www.w3.org/2000/svg"><g id="svgGroup" stroke-linecap="round" fill-rule="nonzero" font-size="9pt" stroke="#ff670096" stroke-width="8" fill="#ff1100" style="stroke:#ff670096;stroke-width:8;fill:#ff1100"><path d="M 151.5 55.2 L 151.2 55.2 A 1.081 1.081 0 0 0 151.12 55.204 Q 150.991 55.213 150.755 55.25 A 13.924 13.924 0 0 0 150.6 55.275 A 3.341 3.341 0 0 0 150.29 55.344 Q 149.968 55.43 149.542 55.594 A 12.534 12.534 0 0 0 149.4 55.65 Q 143.55 58.5 137.175 59.325 Q 130.8 60.15 124.35 60.15 Q 121.5 60.15 118.725 60.075 Q 115.95 60 113.25 60 Q 111.75 60 111.75 58.5 Q 111.75 57 113.25 57 Q 115.95 57 118.725 57.075 Q 121.5 57.15 124.35 57.15 Q 130.5 57.15 136.5 56.4 Q 142.5 55.65 148.05 52.95 A 10.934 10.934 0 0 1 149.209 52.447 Q 149.791 52.236 150.316 52.137 A 4.789 4.789 0 0 1 151.2 52.05 Q 154.5 52.05 154.5 55.65 A 6.094 6.094 0 0 1 154.236 57.357 Q 154.011 58.13 153.591 58.976 A 15.581 15.581 0 0 1 152.7 60.525 Q 151.009 63.133 147.462 64.747 A 18.736 18.736 0 0 1 147 64.95 A 28.549 28.549 0 0 1 143.497 66.276 Q 141.745 66.82 139.713 67.25 A 56.81 56.81 0 0 1 137.175 67.725 Q 131.25 68.7 124.95 69.075 Q 118.65 69.45 113.4 69.525 A 1238.578 1238.578 0 0 1 110.944 69.558 Q 107.554 69.599 105.646 69.6 A 175.139 175.139 0 0 1 105.6 69.6 A 177.832 177.832 0 0 1 95.757 81.195 Q 90.269 87.099 84.781 91.754 A 105.944 105.944 0 0 1 83.1 93.15 A 135.219 135.219 0 0 1 72.718 100.838 Q 67.29 104.45 62.048 107.057 A 83.065 83.065 0 0 1 61.35 107.4 Q 50.85 112.5 41.775 114.525 A 95.242 95.242 0 0 1 34.479 115.873 Q 29.726 116.55 25.65 116.55 A 38.48 38.48 0 0 1 20.636 116.207 A 48.058 48.058 0 0 1 17.325 115.65 Q 12.9 114.75 8.925 112.8 A 18.177 18.177 0 0 1 4.077 109.39 A 16.759 16.759 0 0 1 2.475 107.55 A 12.244 12.244 0 0 1 0.196 102.031 A 16.429 16.429 0 0 1 0 99.45 Q 0 92.4 4.125 86.55 A 36.145 36.145 0 0 1 12.319 78.274 A 43.058 43.058 0 0 1 14.925 76.5 A 55.463 55.463 0 0 1 29.125 70.193 A 61.694 61.694 0 0 1 29.625 70.05 A 59.32 59.32 0 0 1 43.007 67.855 A 54.495 54.495 0 0 1 45.45 67.8 Q 48 67.8 52.8 68.4 Q 57.6 69 62.475 70.5 A 23.755 23.755 0 0 1 66.382 72.071 A 17.079 17.079 0 0 1 70.35 74.85 Q 71.635 76.018 72.284 77.187 A 5.836 5.836 0 0 1 72.6 77.85 Q 73.2 79.35 73.2 80.85 Q 73.2 83.4 71.475 85.275 A 5.554 5.554 0 0 1 67.439 87.146 A 6.782 6.782 0 0 1 67.2 87.15 Q 64.577 87.15 62.08 84.989 A 13.376 13.376 0 0 1 61.65 84.6 Q 59.7 82.8 55.575 80.55 Q 51.45 78.3 45 78.3 Q 36 78.3 29.1 81.225 A 38.881 38.881 0 0 0 23.989 83.824 Q 20.616 85.887 18.3 88.425 A 20.36 20.36 0 0 0 16.328 90.93 Q 15.394 92.348 14.913 93.723 A 8.667 8.667 0 0 0 14.4 96.6 A 6.266 6.266 0 0 0 16.063 100.839 Q 16.847 101.732 18 102.525 Q 21.6 105 29.55 105 Q 34.673 105 41.299 102.941 A 74.664 74.664 0 0 0 46.5 101.1 A 82.997 82.997 0 0 0 57.485 95.758 A 110.374 110.374 0 0 0 66.825 89.7 A 102.575 102.575 0 0 0 83.58 74.483 A 116.434 116.434 0 0 0 86.1 71.55 Q 86.535 70.97 87.25 70.951 A 1.838 1.838 0 0 1 87.3 70.95 A 1.378 1.378 0 0 1 88.128 71.233 Q 88.331 71.382 88.52 71.608 A 3.134 3.134 0 0 1 88.65 71.775 Q 89.25 72.6 88.5 73.35 A 105.162 105.162 0 0 1 71.537 89.916 A 96.731 96.731 0 0 1 68.7 92.025 Q 57.9 99.75 47.55 103.875 A 72.493 72.493 0 0 1 40.754 106.224 Q 34.571 108 29.55 108 A 42.932 42.932 0 0 1 24.669 107.743 Q 18.885 107.078 15.75 104.7 A 12.769 12.769 0 0 1 13.296 102.301 A 8.919 8.919 0 0 1 11.4 96.75 A 12.44 12.44 0 0 1 12.53 91.684 Q 13.559 89.359 15.525 87 A 26.243 26.243 0 0 1 20.513 82.444 Q 22.889 80.753 25.835 79.322 A 46.373 46.373 0 0 1 27.225 78.675 Q 34.8 75.3 45 75.3 A 33.416 33.416 0 0 1 49.993 75.651 Q 52.635 76.051 54.823 76.906 A 17.353 17.353 0 0 1 56.85 77.85 Q 61.5 80.4 63.75 82.5 Q 65.85 84.3 67.35 84.3 A 2.318 2.318 0 0 0 69.118 83.54 A 2.971 2.971 0 0 0 69.3 83.325 Q 70.05 82.35 70.05 81.15 A 5.519 5.519 0 0 0 68.114 76.918 A 8.457 8.457 0 0 0 67.2 76.2 Q 64.528 74.372 60.67 73.203 A 34.136 34.136 0 0 0 60.15 73.05 A 57.151 57.151 0 0 0 52.915 71.467 A 51.874 51.874 0 0 0 51.9 71.325 A 88.237 88.237 0 0 0 49.53 71.048 Q 47.357 70.826 45.807 70.803 A 23.623 23.623 0 0 0 45.45 70.8 Q 38.1 70.8 30.675 72.9 Q 23.25 75 17.025 78.825 A 38.477 38.477 0 0 0 10.782 83.555 A 31.836 31.836 0 0 0 6.975 87.825 Q 3.15 93 3.15 99.15 A 12.544 12.544 0 0 0 3.707 102.972 A 10.205 10.205 0 0 0 6.525 107.4 A 19.151 19.151 0 0 0 11.73 110.824 A 24.79 24.79 0 0 0 15.075 112.05 Q 20.25 113.55 25.65 113.55 A 70.655 70.655 0 0 0 43.689 111.294 A 64.781 64.781 0 0 0 47.7 110.1 A 89.447 89.447 0 0 0 66.551 101.346 A 83.903 83.903 0 0 0 66.825 101.175 A 130.289 130.289 0 0 0 77.804 93.547 A 110.283 110.283 0 0 0 82.575 89.625 Q 88.569 84.404 93.068 79.904 A 138.86 138.86 0 0 0 94.5 78.45 Q 98.457 74.123 100.68 71.12 A 38.433 38.433 0 0 0 101.55 69.9 A 28.622 28.622 0 0 1 102.352 68.779 Q 103.997 66.6 104.85 66.6 L 112.275 66.6 A 167.378 167.378 0 0 0 117.732 66.506 A 225.322 225.322 0 0 0 123.75 66.225 Q 130.05 65.85 136.05 64.875 Q 140.369 64.173 143.521 63.122 A 26.406 26.406 0 0 0 145.8 62.25 A 8.568 8.568 0 0 0 146.388 61.923 Q 146.968 61.573 147.722 61.027 A 34.67 34.67 0 0 0 148.2 60.675 Q 149.7 59.55 150.825 58.05 A 4.892 4.892 0 0 0 151.283 57.323 Q 151.629 56.637 151.629 55.984 A 2.463 2.463 0 0 0 151.5 55.2 Z M 115.725 53.6 A 2.219 2.219 0 0 1 115.425 53.25 A 1.392 1.392 0 0 1 115.238 52.88 Q 115.045 52.283 115.5 51.6 A 185.408 185.408 0 0 1 116.255 50.602 Q 117.115 49.47 118.315 47.921 A 779.739 779.739 0 0 1 119.475 46.425 A 709.103 709.103 0 0 0 122.213 42.881 A 919.362 919.362 0 0 0 125.175 39 A 985.757 985.757 0 0 1 129.661 33.136 A 861.1 861.1 0 0 1 131.1 31.275 A 662.979 662.979 0 0 1 132.464 29.522 Q 134.144 27.371 135.419 25.78 A 219.787 219.787 0 0 1 135.825 25.275 L 137.7 22.95 Q 138.4 21.97 139.557 22.492 A 2.98 2.98 0 0 1 139.725 22.575 A 27.93 27.93 0 0 1 140.745 23.145 Q 141.196 23.408 141.691 23.716 A 55.933 55.933 0 0 1 142.725 24.375 Q 144.45 25.5 146.25 25.8 A 2.038 2.038 0 0 1 146.498 25.814 Q 146.63 25.831 146.743 25.865 A 1.211 1.211 0 0 1 146.775 25.875 Q 147 25.95 147.15 25.95 A 3.614 3.614 0 0 0 148.664 25.65 Q 150.088 25.001 150.6 22.95 A 4.278 4.278 0 0 0 150.777 21.86 Q 150.826 20.111 149.335 18.471 A 8.761 8.761 0 0 0 148.95 18.075 A 20.395 20.395 0 0 0 146.04 15.753 A 27.783 27.783 0 0 0 142.875 13.95 Q 139.2 12.15 135.75 10.95 Q 132.573 9.845 131.05 9.376 A 36.189 36.189 0 0 0 130.8 9.3 A 119.594 119.594 0 0 0 119.288 6.352 A 155.247 155.247 0 0 0 109.35 4.65 A 176.41 176.41 0 0 0 95.807 3.272 A 141.866 141.866 0 0 0 87.15 3 A 192.788 192.788 0 0 0 83.266 3.042 Q 81.528 3.077 79.593 3.142 A 383.583 383.583 0 0 0 75.525 3.3 Q 68.7 3.6 61.125 4.575 Q 53.55 5.55 46.2 7.575 A 60.911 60.911 0 0 0 38.454 10.257 A 48.897 48.897 0 0 0 33.15 12.9 Q 27.45 16.2 23.1 21.225 A 18.592 18.592 0 0 0 20.014 26.065 A 15.549 15.549 0 0 0 18.75 32.25 A 21.109 21.109 0 0 0 18.803 33.802 Q 18.915 35.315 19.264 36.283 A 4.28 4.28 0 0 0 19.5 36.825 Q 20.016 37.804 20.531 38.11 A 0.912 0.912 0 0 0 21 38.25 Q 22.529 38.25 22.641 35.673 A 9.758 9.758 0 0 0 22.65 35.25 A 16.277 16.277 0 0 1 25.901 25.505 A 20.555 20.555 0 0 1 26.475 24.75 A 43.457 43.457 0 0 1 29.595 21.221 Q 31.312 19.491 33.044 18.207 A 23.887 23.887 0 0 1 34.2 17.4 A 40.95 40.95 0 0 1 41.549 13.577 Q 45.256 12.075 49.686 10.961 A 83.679 83.679 0 0 1 54.525 9.9 A 140.85 140.85 0 0 1 79.998 7.502 A 154.761 154.761 0 0 1 80.85 7.5 Q 90.45 7.5 99.75 8.625 A 120.116 120.116 0 0 1 110.687 10.442 A 98.186 98.186 0 0 1 116.925 12 A 58.738 58.738 0 0 1 122.866 14.026 Q 126.872 15.652 129.9 17.7 A 1.195 1.195 0 0 1 130.357 18.009 Q 130.556 18.232 130.62 18.564 A 1.779 1.779 0 0 1 130.65 18.9 Q 130.65 19.65 129.975 20.175 Q 129.3 20.7 128.4 20.1 A 37.411 37.411 0 0 0 123.567 17.53 Q 120.136 15.998 115.875 14.775 A 100.891 100.891 0 0 0 105.85 12.466 A 124.671 124.671 0 0 0 99.3 11.475 Q 90.3 10.35 81 10.35 Q 67.65 10.35 55.425 12.675 A 75.492 75.492 0 0 0 47.288 14.666 Q 43.324 15.888 40.088 17.469 A 35.26 35.26 0 0 0 36 19.8 A 27.888 27.888 0 0 0 31.815 23.325 A 36.496 36.496 0 0 0 28.95 26.625 Q 25.714 30.818 25.651 35.083 A 11.464 11.464 0 0 0 25.65 35.25 A 9.186 9.186 0 0 1 25.497 36.983 Q 25.302 37.998 24.858 38.79 A 4.818 4.818 0 0 1 24.225 39.675 Q 22.8 41.25 21 41.25 Q 19.05 41.25 17.4 39.075 A 6.713 6.713 0 0 1 16.427 37.192 Q 15.818 35.424 15.757 32.833 A 24.9 24.9 0 0 1 15.75 32.25 Q 15.75 27.45 18.075 23.25 Q 20.4 19.05 24.075 15.75 A 46.898 46.898 0 0 1 29.474 11.549 A 40.983 40.983 0 0 1 31.65 10.2 A 52.958 52.958 0 0 1 40.534 6.168 A 64.337 64.337 0 0 1 45.225 4.725 Q 52.8 2.7 60.675 1.65 A 179.549 179.549 0 0 1 70.167 0.63 A 147.795 147.795 0 0 1 75.525 0.3 Q 82.332 0.007 86.924 0 A 146.824 146.824 0 0 1 87.15 0 A 113.932 113.932 0 0 1 91.875 0.105 Q 94.512 0.215 97.515 0.44 A 232.987 232.987 0 0 1 101.25 0.75 A 177.595 177.595 0 0 1 115.546 2.656 A 198.885 198.885 0 0 1 118.275 3.15 A 140.3 140.3 0 0 1 133 6.727 A 127.173 127.173 0 0 1 135 7.35 A 62.467 62.467 0 0 1 140.989 9.595 Q 143.888 10.865 146.267 12.327 A 33.421 33.421 0 0 1 148.05 13.5 A 18.924 18.924 0 0 1 151.113 16.104 A 16.785 16.785 0 0 1 152.1 17.25 Q 153.75 19.35 153.75 21.9 Q 153.75 22.35 153.675 22.8 Q 153.6 23.25 153.45 23.7 Q 152.944 25.624 152.028 26.796 A 4.904 4.904 0 0 1 151.05 27.75 Q 149.4 28.95 147.3 28.95 A 9.015 9.015 0 0 1 145.177 28.683 Q 144.173 28.44 143.1 27.975 A 42.467 42.467 0 0 1 140.711 26.854 A 33.246 33.246 0 0 1 139.05 25.95 A 109.517 109.517 0 0 1 138.277 26.967 Q 136.969 28.669 134.775 31.425 A 733.142 733.142 0 0 0 131.738 35.269 A 930.162 930.162 0 0 0 128.475 39.45 Q 125.1 43.8 122.175 47.625 A 339.243 339.243 0 0 0 120.811 49.42 Q 118.924 51.923 117.912 53.383 A 47.213 47.213 0 0 0 117.9 53.4 Q 117.465 53.98 116.75 53.999 A 1.838 1.838 0 0 1 116.7 54 A 1.389 1.389 0 0 1 115.725 53.6 Z M 91.95 69.15 A 843.108 843.108 0 0 0 90.741 69.07 Q 89.073 68.962 86.845 68.822 A 2622.313 2622.313 0 0 0 86.1 68.775 Q 82.5 68.55 78.525 68.175 A 65.377 65.377 0 0 1 74.016 67.597 A 52.648 52.648 0 0 1 71.175 67.05 A 21.009 21.009 0 0 1 69.13 66.493 Q 67.21 65.857 66 64.95 A 5.466 5.466 0 0 1 64.163 62.416 Q 63.6 60.907 63.6 58.8 Q 63.6 56.55 64.725 54.675 A 3.963 3.963 0 0 1 67.147 52.873 A 6.46 6.46 0 0 1 68.55 52.65 Q 69.45 52.5 70.35 52.5 L 72 52.5 Q 78.9 52.5 85.5 54.3 Q 92.1 56.1 98.85 56.85 A 3686.572 3686.572 0 0 0 106.261 47.555 A 4155.776 4155.776 0 0 0 108.825 44.325 Q 114 37.8 118.35 32.325 Q 122.661 26.899 124.763 24.198 A 320.738 320.738 0 0 0 124.8 24.15 Q 125.235 23.57 125.95 23.551 A 1.838 1.838 0 0 1 126 23.55 A 1.378 1.378 0 0 1 126.828 23.833 Q 127.031 23.982 127.22 24.208 A 3.134 3.134 0 0 1 127.35 24.375 Q 127.95 25.2 127.2 25.95 A 801.116 801.116 0 0 1 125.935 27.548 Q 124.484 29.376 122.436 31.941 A 3699.163 3699.163 0 0 1 120.45 34.425 A 5020.007 5020.007 0 0 0 115.763 40.294 A 6356.83 6356.83 0 0 0 110.7 46.65 Q 105.45 53.25 100.8 59.25 A 1.086 1.086 0 0 1 100.452 59.473 Q 99.919 59.699 98.861 59.7 A 9.927 9.927 0 0 1 98.85 59.7 Q 97.54 59.7 95.756 59.429 A 40.452 40.452 0 0 1 93.9 59.1 Q 90.9 58.5 88.35 57.9 A 251.017 251.017 0 0 1 87.468 57.691 Q 85.716 57.272 85.35 57.15 Q 81.15 56.4 76.95 55.875 A 42.21 42.21 0 0 0 71.886 55.541 Q 71.806 55.541 71.726 55.541 A 37.489 37.489 0 0 0 68.85 55.65 A 1.935 1.935 0 0 0 67.631 56.339 Q 67.407 56.598 67.224 56.952 A 4.06 4.06 0 0 0 67.2 57 Q 66.6 58.2 66.6 59.55 Q 66.6 60.745 66.939 61.517 A 2.236 2.236 0 0 0 67.8 62.55 A 5.262 5.262 0 0 0 68.774 63.134 Q 70.13 63.778 72.45 64.2 A 81.365 81.365 0 0 0 76.78 64.862 A 99.712 99.712 0 0 0 79.575 65.175 Q 83.4 65.55 86.925 65.775 A 588.9 588.9 0 0 1 88.58 65.883 Q 90.9 66.037 92.25 66.15 A 1.733 1.733 0 0 1 92.809 66.232 Q 93.581 66.495 93.6 67.596 A 3.243 3.243 0 0 1 93.6 67.65 A 1.604 1.604 0 0 1 93.342 68.516 A 2.176 2.176 0 0 1 93.15 68.775 Q 92.733 69.262 92.058 69.168 A 1.827 1.827 0 0 1 91.95 69.15 Z" id="0" vector-effect="non-scaling-stroke"/><path d="M 182.25 86.7 Q 181.35 86.7 180.825 85.95 A 1.392 1.392 0 0 1 180.638 85.58 Q 180.445 84.983 180.9 84.3 Q 184.697 78.731 185.29 73.483 A 17.196 17.196 0 0 0 185.4 71.55 Q 185.4 67.2 182.775 64.425 Q 180.516 62.036 176.311 61.704 A 17.903 17.903 0 0 0 174.9 61.65 Q 167.614 61.65 160.656 67.605 A 36.938 36.938 0 0 0 159.675 68.475 A 108.797 108.797 0 0 0 152.632 75.615 Q 149.107 79.514 145.501 84.139 A 183.917 183.917 0 0 0 144.45 85.5 Q 144.149 85.801 143.848 85.901 A 0.943 0.943 0 0 1 143.55 85.95 A 1.21 1.21 0 0 1 142.739 85.633 Q 142.563 85.48 142.405 85.254 A 2.987 2.987 0 0 1 142.275 85.05 A 1.887 1.887 0 0 1 142.095 84.643 Q 141.938 84.12 142.161 83.597 A 2.134 2.134 0 0 1 142.35 83.25 A 177.801 177.801 0 0 1 148.725 75.281 A 149.456 149.456 0 0 1 152.55 70.95 A 54.66 54.66 0 0 1 158.075 65.688 A 42.618 42.618 0 0 1 163.125 62.1 A 22.644 22.644 0 0 1 170.81 59.139 A 21.207 21.207 0 0 1 174.6 58.8 A 24.573 24.573 0 0 1 178.377 59.069 Q 180.311 59.371 181.836 60.011 A 9.149 9.149 0 0 1 185.25 62.4 Q 188.4 66 188.4 71.1 Q 188.4 74.85 187.05 78.75 Q 185.7 82.65 183.3 86.1 A 1.854 1.854 0 0 1 183.004 86.416 A 1.153 1.153 0 0 1 182.25 86.7 Z M 153.17 105.019 A 5.475 5.475 0 0 1 150.375 103.125 A 7.712 7.712 0 0 1 148.913 100.001 Q 148.658 98.884 148.651 97.584 A 13.699 13.699 0 0 1 148.65 97.5 A 17.731 17.731 0 0 1 149.244 93.083 Q 149.746 91.128 150.676 89.029 A 33.88 33.88 0 0 1 151.35 87.6 Q 154.05 82.2 158.325 77.325 A 51.87 51.87 0 0 1 163.253 72.386 A 41.808 41.808 0 0 1 167.25 69.3 A 24.279 24.279 0 0 1 170.069 67.639 Q 173.072 66.15 175.65 66.15 A 4.356 4.356 0 0 1 176.39 66.207 Q 177.716 66.437 177.749 67.589 A 2.078 2.078 0 0 1 177.75 67.65 A 1.604 1.604 0 0 1 177.492 68.516 A 2.176 2.176 0 0 1 177.3 68.775 Q 176.883 69.262 176.208 69.168 A 1.827 1.827 0 0 1 176.1 69.15 Q 172.95 68.85 168.825 71.7 A 38.722 38.722 0 0 0 164.256 75.428 A 50.292 50.292 0 0 0 160.8 79.05 Q 156.9 83.55 154.275 88.575 Q 151.65 93.6 151.65 97.65 A 8.451 8.451 0 0 0 151.774 99.135 Q 151.955 100.148 152.4 100.95 A 2.448 2.448 0 0 0 153.865 102.11 Q 154.313 102.253 154.868 102.288 A 5.969 5.969 0 0 0 155.25 102.3 A 8.369 8.369 0 0 0 157.725 101.906 Q 159 101.512 160.35 100.725 Q 163.05 99.15 165.3 96.9 A 26.32 26.32 0 0 0 166.805 95.271 Q 167.94 93.926 168.6 92.7 Q 169.05 91.95 169.8 91.95 A 1.626 1.626 0 0 1 170.801 92.298 A 2.428 2.428 0 0 1 171.15 92.625 Q 171.75 93.3 171.15 94.2 A 20.43 20.43 0 0 1 169.855 96.09 Q 169.173 96.982 168.326 97.925 A 40.342 40.342 0 0 1 167.25 99.075 Q 164.7 101.7 161.55 103.5 A 14.244 14.244 0 0 1 158.406 104.848 A 11.42 11.42 0 0 1 155.25 105.3 A 7.299 7.299 0 0 1 153.17 105.019 Z M 149.195 113.747 A 14.53 14.53 0 0 1 144.15 110.475 A 13.241 13.241 0 0 1 141.473 106.825 Q 140.328 104.467 140.328 101.745 A 13.669 13.669 0 0 1 140.4 100.35 Q 140.4 98.85 141.9 98.85 Q 142.5 98.85 143.025 99.375 A 1.42 1.42 0 0 1 143.325 99.802 Q 143.479 100.148 143.415 100.567 A 1.824 1.824 0 0 1 143.4 100.65 Q 143.1 104.55 146.475 108.225 A 11.1 11.1 0 0 0 154.572 111.891 A 14.604 14.604 0 0 0 155.1 111.9 A 13.011 13.011 0 0 0 158.778 111.342 Q 160.283 110.899 161.863 110.106 A 23.152 23.152 0 0 0 162.45 109.8 Q 165.482 108.168 168.514 104.813 A 39.955 39.955 0 0 0 170.25 102.75 L 171.225 101.55 Q 172.2 100.35 173.4 98.925 A 23.939 23.939 0 0 0 174.016 98.165 Q 174.727 97.247 175.05 96.6 A 2.322 2.322 0 0 1 175.309 96.187 Q 175.699 95.7 176.25 95.7 Q 177 95.7 177.525 96.375 Q 178.05 97.05 177.6 97.95 Q 176.7 99.75 175.2 101.4 A 40.488 40.488 0 0 0 173.119 103.875 A 35.45 35.45 0 0 0 172.5 104.7 A 35.534 35.534 0 0 1 169.162 108.45 Q 167.258 110.289 165.282 111.538 A 19.144 19.144 0 0 1 163.725 112.425 A 23.342 23.342 0 0 1 159.794 114.014 A 16.995 16.995 0 0 1 154.95 114.75 A 16.034 16.034 0 0 1 149.195 113.747 Z M 180.45 93.3 Q 175.5 93.3 171.9 90.3 Q 168.3 87.3 168.3 82.2 Q 168.3 80.4 168.825 78.375 A 22.354 22.354 0 0 1 169.582 76.026 A 28.937 28.937 0 0 1 170.4 74.1 A 1.945 1.945 0 0 1 170.716 73.635 A 1.357 1.357 0 0 1 171.75 73.2 A 1.614 1.614 0 0 1 172.95 73.719 A 2.165 2.165 0 0 1 173.025 73.8 Q 173.55 74.4 173.1 75.3 A 17.411 17.411 0 0 0 172.292 77.17 A 13.405 13.405 0 0 0 171.825 78.75 A 15.232 15.232 0 0 0 171.503 80.754 A 12.733 12.733 0 0 0 171.45 81.9 A 9.727 9.727 0 0 0 171.769 84.463 A 6.919 6.919 0 0 0 174.15 88.125 Q 176.85 90.3 180.6 90.3 A 14.425 14.425 0 0 0 184.996 89.589 A 18.423 18.423 0 0 0 187.35 88.65 A 16.158 16.158 0 0 0 191.236 86.003 A 21.652 21.652 0 0 0 193.65 83.4 A 1.854 1.854 0 0 1 193.946 83.084 A 1.153 1.153 0 0 1 194.7 82.8 A 1.378 1.378 0 0 1 195.528 83.083 Q 195.731 83.232 195.92 83.458 A 3.134 3.134 0 0 1 196.05 83.625 A 1.845 1.845 0 0 1 196.227 83.919 Q 196.473 84.439 196.227 84.928 A 1.56 1.56 0 0 1 196.05 85.2 Q 192.6 89.4 188.475 91.35 A 21.297 21.297 0 0 1 184.407 92.812 A 16.713 16.713 0 0 1 180.45 93.3 Z" id="1" vector-effect="non-scaling-stroke"/><path d="M 220.65 64.8 Q 222.3 64.8 223.65 64.65 Q 224.41 64.566 225.074 64.529 A 17.643 17.643 0 0 1 226.05 64.5 Q 229.824 64.5 232.125 65.004 A 9.746 9.746 0 0 1 233.7 65.475 A 13.89 13.89 0 0 1 234.107 65.648 Q 235.373 66.209 236.119 66.866 A 3.565 3.565 0 0 1 236.85 67.725 Q 237.6 69 237.6 70.2 Q 237.6 72.45 236.4 74.4 L 234 78.3 A 17.426 17.426 0 0 1 233.573 79.046 Q 232.812 80.304 231.539 82.027 A 82.07 82.07 0 0 1 230.325 83.625 Q 227.7 87 225.525 90.825 Q 224.404 92.797 223.861 94.63 A 11.667 11.667 0 0 0 223.35 97.95 A 7.335 7.335 0 0 0 223.369 98.474 Q 223.567 101.24 225.9 102.75 A 5.184 5.184 0 0 0 227.662 103.49 A 7.037 7.037 0 0 0 229.2 103.65 A 9.677 9.677 0 0 0 232.251 103.123 Q 233.642 102.661 235.13 101.796 A 24.717 24.717 0 0 0 237.9 99.9 Q 242.7 96.15 247.2 91.725 A 230.963 230.963 0 0 0 247.273 91.653 Q 251.714 87.283 253.35 85.2 A 2.506 2.506 0 0 0 253.47 85.044 Q 254.048 84.228 253.5 83.475 A 3.134 3.134 0 0 0 253.37 83.308 Q 253.181 83.082 252.978 82.933 A 1.378 1.378 0 0 0 252.15 82.65 A 1.153 1.153 0 0 0 251.396 82.934 A 1.854 1.854 0 0 0 251.1 83.25 A 15.806 15.806 0 0 1 250.924 83.472 Q 250.132 84.454 248.597 86.077 A 127.462 127.462 0 0 1 247.35 87.375 A 124.349 124.349 0 0 1 244.482 90.225 A 159.204 159.204 0 0 1 241.275 93.225 A 66.605 66.605 0 0 1 238.351 95.743 A 52.363 52.363 0 0 1 234.675 98.475 Q 232.559 99.902 230.862 100.393 A 6 6 0 0 1 229.2 100.65 Q 228.3 100.65 227.55 100.2 A 2.272 2.272 0 0 1 226.803 99.442 Q 226.552 99.029 226.44 98.477 A 4.934 4.934 0 0 1 226.35 97.5 Q 226.35 97.05 226.425 96.6 Q 226.5 96.15 226.65 95.7 Q 228.9 90.45 232.425 86.025 Q 235.95 81.6 238.65 76.5 A 22.182 22.182 0 0 0 239.462 74.909 Q 240.056 73.613 240.377 72.415 A 10.329 10.329 0 0 0 240.75 69.75 Q 240.75 64.95 236.025 63.225 A 27.285 27.285 0 0 0 231.348 61.987 A 34.295 34.295 0 0 0 225.45 61.5 A 41.168 41.168 0 0 0 224.529 61.511 A 49.278 49.278 0 0 0 222.9 61.575 A 41.767 41.767 0 0 0 222.071 61.629 A 35.361 35.361 0 0 0 220.35 61.8 A 1.951 1.951 0 0 0 219.978 61.833 Q 219 62.024 219 63.3 Q 219 64.8 220.5 64.8 L 220.65 64.8 Z M 221.85 114.75 Q 216.75 114.75 212.925 112.2 Q 209.31 109.79 209.112 104.299 A 17.954 17.954 0 0 1 209.1 103.65 A 20.142 20.142 0 0 1 209.694 98.936 Q 210.366 96.143 211.8 93.075 Q 214.5 87.3 218.1 81.825 A 308.862 308.862 0 0 1 220.695 77.94 Q 222.769 74.887 224.55 72.45 Q 224.985 71.87 225.7 71.851 A 1.838 1.838 0 0 1 225.75 71.85 A 1.49 1.49 0 0 1 226.65 72.158 Q 226.855 72.309 227.046 72.534 A 3.043 3.043 0 0 1 227.1 72.6 Q 227.7 73.35 226.95 74.25 A 310.734 310.734 0 0 0 224.901 77.182 Q 223.078 79.819 220.875 83.1 Q 217.35 88.35 214.725 93.825 A 32.361 32.361 0 0 0 213.178 97.615 Q 212.1 100.863 212.1 103.65 A 10.514 10.514 0 0 0 212.354 106.037 Q 212.893 108.349 214.575 109.725 A 8.487 8.487 0 0 0 217.785 111.331 Q 219.339 111.75 221.25 111.75 Q 226.65 111.75 233.025 108.9 A 31.739 31.739 0 0 0 237.884 106.228 Q 240.856 104.215 242.85 101.7 Q 243.285 101.12 244 101.101 A 1.838 1.838 0 0 1 244.05 101.1 A 1.378 1.378 0 0 1 244.878 101.383 Q 245.081 101.532 245.27 101.758 A 3.134 3.134 0 0 1 245.4 101.925 Q 246 102.75 245.25 103.5 A 29.515 29.515 0 0 1 239.015 109.004 A 38.04 38.04 0 0 1 234.6 111.525 A 33.878 33.878 0 0 1 228.512 113.84 A 25.651 25.651 0 0 1 221.85 114.75 Z M 193.875 85.4 A 2.219 2.219 0 0 1 193.575 85.05 A 1.392 1.392 0 0 1 193.388 84.68 Q 193.195 84.083 193.65 83.4 A 111.043 111.043 0 0 0 197.933 77.394 A 134.103 134.103 0 0 0 200.475 73.425 Q 203.85 67.95 206.325 63.225 A 256.621 256.621 0 0 0 207.464 61.027 Q 208.861 58.297 209.548 56.749 A 29.414 29.414 0 0 0 209.7 56.4 A 30.691 30.691 0 0 1 211.288 53.073 Q 212.21 51.425 213.238 50.175 A 12.647 12.647 0 0 1 215.4 48.075 A 15.31 15.31 0 0 1 217.609 46.679 Q 218.895 46.021 220.133 45.765 A 7.702 7.702 0 0 1 221.7 45.6 Q 225 45.6 227.325 47.85 Q 229.65 50.1 229.65 53.55 A 7.033 7.033 0 0 1 229.508 54.894 Q 229.238 56.278 228.45 58.05 A 1.945 1.945 0 0 1 228.134 58.515 A 1.357 1.357 0 0 1 227.1 58.95 A 1.614 1.614 0 0 1 225.9 58.431 A 2.165 2.165 0 0 1 225.825 58.35 Q 225.3 57.75 225.75 56.85 Q 226.293 55.548 226.443 54.482 A 5.613 5.613 0 0 0 226.5 53.7 Q 226.5 51.6 225.15 50.1 A 4.396 4.396 0 0 0 221.96 48.606 A 5.69 5.69 0 0 0 221.7 48.6 A 5.556 5.556 0 0 0 219.578 49.046 Q 218.785 49.372 217.967 49.937 A 12.546 12.546 0 0 0 216.975 50.7 Q 214.5 52.8 212.4 57.6 Q 211.5 59.85 208.95 64.65 Q 206.4 69.45 202.95 75 A 160.86 160.86 0 0 1 198.638 81.586 A 134.068 134.068 0 0 1 196.05 85.2 Q 195.615 85.78 194.9 85.799 A 1.838 1.838 0 0 1 194.85 85.8 A 1.389 1.389 0 0 1 193.875 85.4 Z M 192.606 98.431 A 2.361 2.361 0 0 1 192.375 98.1 A 1.567 1.567 0 0 1 192.246 97.824 Q 191.99 97.083 192.75 96.45 A 92.886 92.886 0 0 0 200.783 87.549 A 104.517 104.517 0 0 0 202.2 85.725 A 223.817 223.817 0 0 0 206.139 80.385 Q 208.212 77.48 209.925 74.85 Q 212.716 70.566 213.654 68.529 A 9.907 9.907 0 0 0 213.9 67.95 A 1.945 1.945 0 0 1 214.216 67.485 A 1.357 1.357 0 0 1 215.25 67.05 A 1.506 1.506 0 0 1 215.878 67.177 Q 216.208 67.327 216.45 67.65 Q 216.9 68.249 216.601 69.147 A 3.056 3.056 0 0 1 216.6 69.15 A 12.137 12.137 0 0 1 216.109 70.299 Q 215.177 72.238 213.025 75.611 A 134.303 134.303 0 0 1 212.55 76.35 A 145.539 145.539 0 0 1 209.16 81.345 Q 207.332 83.929 205.212 86.722 A 239.12 239.12 0 0 1 204.6 87.525 A 102.256 102.256 0 0 1 196.747 96.654 A 91.832 91.832 0 0 1 194.85 98.55 A 1.568 1.568 0 0 1 194.387 98.877 A 1.409 1.409 0 0 1 193.8 99 A 1.498 1.498 0 0 1 192.606 98.431 Z" id="2" vector-effect="non-scaling-stroke"/><path d="M 334.8 102.9 Q 332.25 102.9 330.3 101.25 A 5.402 5.402 0 0 1 328.389 97.528 A 7.644 7.644 0 0 1 328.35 96.75 A 6 6 0 0 1 328.522 95.415 Q 328.84 94.038 329.746 92.135 A 35.393 35.393 0 0 1 330.525 90.6 A 177.534 177.534 0 0 1 332.869 86.381 A 233.384 233.384 0 0 1 335.55 81.825 Q 338.4 77.1 340.575 73.125 Q 342.75 69.15 342.75 67.35 A 6.26 6.26 0 0 0 342.274 64.863 Q 341.662 63.432 340.262 62.435 A 7.76 7.76 0 0 0 339.75 62.1 A 12.729 12.729 0 0 0 333.582 60.311 A 15.271 15.271 0 0 0 333 60.3 A 22.331 22.331 0 0 0 324.492 62.03 A 27.793 27.793 0 0 0 321.675 63.375 Q 316.05 66.45 311.175 71.025 A 111.559 111.559 0 0 0 306.619 75.544 A 86.568 86.568 0 0 0 302.7 79.95 Q 302.265 80.53 301.55 80.549 A 1.838 1.838 0 0 1 301.5 80.55 Q 300.787 80.55 300.277 79.803 A 2.896 2.896 0 0 1 300.225 79.725 Q 299.7 78.9 300.3 78.15 A 86.652 86.652 0 0 1 304.157 73.813 Q 306.126 71.735 308.415 69.551 A 141.932 141.932 0 0 1 309.075 68.925 Q 314.25 64.05 320.4 60.675 Q 326.55 57.3 333 57.3 Q 335.7 57.3 338.7 58.275 Q 341.7 59.25 343.725 61.5 A 7.737 7.737 0 0 1 345.572 65.331 A 10.922 10.922 0 0 1 345.75 67.35 A 6.713 6.713 0 0 1 345.578 68.77 Q 345.139 70.781 343.575 73.8 A 141.042 141.042 0 0 1 341.232 78.131 A 177.706 177.706 0 0 1 338.55 82.725 Q 335.792 87.298 333.666 91.028 A 276.053 276.053 0 0 0 333.525 91.275 A 37.705 37.705 0 0 0 332.678 92.844 Q 331.35 95.461 331.35 96.75 A 4.109 4.109 0 0 0 331.537 98.044 Q 332.152 99.9 334.8 99.9 Q 338.25 99.9 342 96.9 A 45.631 45.631 0 0 0 348.468 90.54 A 50.78 50.78 0 0 0 348.975 89.925 Q 352.2 85.95 354 83.4 A 1.854 1.854 0 0 1 354.296 83.084 A 1.153 1.153 0 0 1 355.05 82.8 A 1.582 1.582 0 0 1 355.87 83.037 Q 356.103 83.176 356.327 83.395 A 3.365 3.365 0 0 1 356.475 83.55 A 1.423 1.423 0 0 1 356.67 83.821 Q 356.972 84.377 356.544 85.01 A 2.39 2.39 0 0 1 356.4 85.2 Q 354.973 87.239 352.887 89.832 A 159.15 159.15 0 0 1 350.775 92.4 A 48.234 48.234 0 0 1 343.382 99.552 A 45.006 45.006 0 0 1 343.125 99.75 A 17.324 17.324 0 0 1 339.891 101.73 A 12.04 12.04 0 0 1 334.8 102.9 Z M 303.15 65.1 L 303.6 65.1 Q 305.1 65.1 305.1 66.6 Q 305.1 67.633 303.939 67.94 A 2.943 2.943 0 0 1 303.9 67.95 Q 294.6 70.35 287.775 76.425 Q 280.95 82.5 275.775 90.525 Q 270.6 98.55 266.1 106.95 A 13.884 13.884 0 0 1 265.001 108.762 Q 264.382 109.634 263.574 110.542 A 27.269 27.269 0 0 1 262.8 111.375 Q 260.55 113.7 257.1 113.7 A 7.426 7.426 0 0 1 255.341 113.505 A 4.579 4.579 0 0 1 252.525 111.6 Q 251.1 109.5 251.1 107.1 A 10.623 10.623 0 0 1 251.29 105.173 Q 251.468 104.211 251.813 103.137 A 23.912 23.912 0 0 1 252.45 101.4 Q 253.8 98.1 255.525 94.875 A 174.665 174.665 0 0 0 256.346 93.323 Q 257.513 91.087 258.3 89.4 A 1.945 1.945 0 0 1 258.616 88.935 A 1.357 1.357 0 0 1 259.65 88.5 Q 260.4 88.5 260.925 89.175 Q 261.45 89.85 261 90.75 Q 260.1 92.55 258.45 95.7 Q 256.8 98.85 255.45 102 A 24.849 24.849 0 0 0 254.798 103.677 Q 254.201 105.406 254.115 106.682 A 6.202 6.202 0 0 0 254.1 107.1 Q 254.1 110.7 257.1 110.7 A 4.98 4.98 0 0 0 259.874 109.814 Q 261.351 108.841 262.725 106.8 A 91.973 91.973 0 0 0 264.789 103.58 Q 265.688 102.115 266.654 100.445 A 191.437 191.437 0 0 0 268.65 96.9 A 128.235 128.235 0 0 1 273.244 89.224 A 157.765 157.765 0 0 1 276.45 84.45 Q 280.95 78 287.4 72.75 A 37.842 37.842 0 0 1 297.354 66.982 A 48.067 48.067 0 0 1 303.15 65.1 Z M 333.3 65.1 L 333.75 65.1 Q 335.25 65.1 335.25 66.6 Q 335.25 67.633 334.089 67.94 A 2.943 2.943 0 0 1 334.05 67.95 Q 324.75 70.35 317.925 76.425 Q 311.1 82.5 305.925 90.525 Q 300.75 98.55 296.25 106.95 A 13.884 13.884 0 0 1 295.151 108.762 Q 294.532 109.634 293.724 110.542 A 27.269 27.269 0 0 1 292.95 111.375 Q 290.7 113.7 287.25 113.7 A 6.775 6.775 0 0 1 285.404 113.463 A 4.761 4.761 0 0 1 282.75 111.6 A 8.064 8.064 0 0 1 281.522 109.089 A 7.317 7.317 0 0 1 281.25 107.1 A 10.623 10.623 0 0 1 281.44 105.173 Q 281.618 104.211 281.963 103.137 A 23.912 23.912 0 0 1 282.6 101.4 Q 283.95 98.1 285.675 94.875 A 174.665 174.665 0 0 0 286.496 93.323 Q 287.663 91.087 288.45 89.4 A 1.945 1.945 0 0 1 288.766 88.935 A 1.357 1.357 0 0 1 289.8 88.5 Q 290.55 88.5 291.075 89.175 Q 291.6 89.85 291.15 90.75 Q 290.25 92.55 288.6 95.7 Q 286.95 98.85 285.6 102 A 24.849 24.849 0 0 0 284.948 103.677 Q 284.351 105.406 284.265 106.682 A 6.202 6.202 0 0 0 284.25 107.1 Q 284.25 110.7 287.25 110.7 A 4.98 4.98 0 0 0 290.024 109.814 Q 291.501 108.841 292.875 106.8 A 91.973 91.973 0 0 0 294.939 103.58 Q 295.838 102.115 296.804 100.445 A 191.437 191.437 0 0 0 298.8 96.9 A 128.235 128.235 0 0 1 303.394 89.224 A 157.765 157.765 0 0 1 306.6 84.45 Q 311.1 78 317.55 72.75 A 37.842 37.842 0 0 1 327.504 66.982 A 48.067 48.067 0 0 1 333.3 65.1 Z M 327.15 113.85 Q 332.55 113.85 337.575 111.75 Q 342.6 109.65 346.8 106.5 Q 347.124 106.257 347.273 105.928 A 1.506 1.506 0 0 0 347.4 105.3 Q 347.4 103.8 345.9 103.8 A 2.11 2.11 0 0 0 345.703 103.809 Q 345.249 103.852 345 104.1 Q 341.1 106.95 336.525 108.9 Q 331.95 110.85 327.15 110.85 A 24.489 24.489 0 0 1 325.934 110.82 Q 324.17 110.733 322.654 110.384 A 12.916 12.916 0 0 1 319.425 109.2 A 5.53 5.53 0 0 1 316.594 105.433 A 9.542 9.542 0 0 1 316.35 103.2 A 15.451 15.451 0 0 1 316.463 101.364 Q 316.672 99.623 317.264 97.709 A 30.843 30.843 0 0 1 318.675 94.05 A 66.484 66.484 0 0 1 318.971 93.411 A 72.267 72.267 0 0 1 324.3 84 Q 327.6 79.05 330.3 75.75 A 2.2 2.2 0 0 0 330.321 75.729 Q 331.043 74.987 330.525 74.1 A 2.361 2.361 0 0 0 330.294 73.769 A 1.498 1.498 0 0 0 329.1 73.2 A 1.153 1.153 0 0 0 328.346 73.484 A 1.854 1.854 0 0 0 328.05 73.8 Q 325.35 77.1 321.9 82.2 Q 318.45 87.3 315.9 92.85 Q 314.665 95.538 314.028 98.051 A 20.94 20.94 0 0 0 313.35 103.2 A 15.851 15.851 0 0 0 313.389 104.33 Q 313.642 107.862 315.525 109.875 Q 317.7 112.2 320.85 113.025 Q 324 113.85 327.15 113.85 Z M 251.339 85.633 Q 251.163 85.48 251.005 85.254 A 2.987 2.987 0 0 1 250.875 85.05 A 2.017 2.017 0 0 1 250.717 84.715 Q 250.506 84.126 250.808 83.606 A 1.687 1.687 0 0 1 250.95 83.4 Q 258 75.45 264.525 67.275 Q 271.05 59.1 278.4 51.45 Q 280.213 49.637 282.091 48.797 A 9.094 9.094 0 0 1 282.375 48.675 A 11.298 11.298 0 0 1 284.754 47.986 A 9.555 9.555 0 0 1 286.35 47.85 A 9.72 9.72 0 0 1 289.756 48.435 A 8.975 8.975 0 0 1 291.675 49.425 A 7.129 7.129 0 0 1 292.799 50.352 Q 293.418 50.991 293.718 51.701 A 3.56 3.56 0 0 1 294 53.1 A 2.931 2.931 0 0 1 293.817 54.083 Q 293.532 54.886 292.8 55.8 A 1.568 1.568 0 0 1 292.337 56.127 A 1.409 1.409 0 0 1 291.75 56.25 A 1.558 1.558 0 0 1 290.526 55.695 A 2.211 2.211 0 0 1 290.325 55.425 Q 289.849 54.676 290.423 53.865 A 2.66 2.66 0 0 1 290.55 53.7 Q 290.751 53.499 290.817 53.299 A 0.629 0.629 0 0 0 290.85 53.1 A 1.405 1.405 0 0 0 290.434 52.12 Q 289.915 51.566 288.75 51.15 A 5.288 5.288 0 0 0 288.096 50.979 A 6.27 6.27 0 0 0 287.775 50.925 A 6.594 6.594 0 0 0 287.35 50.879 Q 287.112 50.861 286.839 50.854 A 13.472 13.472 0 0 0 286.5 50.85 A 7.049 7.049 0 0 0 285.025 51.014 Q 284.37 51.155 283.669 51.415 A 11.686 11.686 0 0 0 283.575 51.45 Q 282 52.05 280.5 53.55 Q 273.3 61.05 266.775 69.225 Q 260.25 77.4 253.35 85.35 Q 252.915 85.93 252.2 85.949 A 1.838 1.838 0 0 1 252.15 85.95 A 1.21 1.21 0 0 1 251.339 85.633 Z M 269.925 79.725 Q 269.4 78.9 270.15 78.15 A 86.652 86.652 0 0 1 274.007 73.813 Q 275.976 71.735 278.265 69.551 A 141.932 141.932 0 0 1 278.925 68.925 Q 284.1 64.05 290.25 60.675 Q 296.4 57.3 302.85 57.3 A 15.804 15.804 0 0 1 306.583 57.759 A 17.89 17.89 0 0 1 307.125 57.9 Q 309.3 58.5 311.25 59.7 Q 312 60.15 312 60.9 A 1.389 1.389 0 0 1 311.6 61.876 A 2.219 2.219 0 0 1 311.25 62.175 Q 310.57 62.651 309.644 62.202 A 3.214 3.214 0 0 1 309.45 62.1 A 9.356 9.356 0 0 0 307.433 61.094 A 11.6 11.6 0 0 0 306.3 60.75 A 15.211 15.211 0 0 0 304.109 60.363 A 12.784 12.784 0 0 0 302.85 60.3 Q 297.15 60.3 291.45 63.375 Q 285.75 66.45 280.875 70.95 A 89.739 89.739 0 0 0 275.536 76.294 A 72.623 72.623 0 0 0 272.4 79.95 Q 271.965 80.53 271.25 80.549 A 1.838 1.838 0 0 1 271.2 80.55 Q 270.487 80.55 269.977 79.803 A 2.896 2.896 0 0 1 269.925 79.725 Z" id="3" vector-effect="non-scaling-stroke"/><path d="M 414.45 36.15 L 414.45 35.85 A 1.733 1.733 0 0 1 414.533 35.291 Q 414.795 34.519 415.896 34.5 A 3.243 3.243 0 0 1 415.95 34.5 A 2.237 2.237 0 0 1 416.513 34.565 Q 417.335 34.779 417.45 35.7 A 5.964 5.964 0 0 0 418.433 37.941 Q 418.956 38.694 419.731 39.408 A 12.073 12.073 0 0 0 420.3 39.9 A 23.215 23.215 0 0 0 422.963 41.756 Q 424.38 42.61 426.043 43.376 A 36.818 36.818 0 0 0 426.15 43.425 Q 429.6 45 433.05 45.825 A 37.297 37.297 0 0 0 435.394 46.311 Q 437.363 46.65 438.9 46.65 Q 446.85 46.65 453.675 43.35 A 37.363 37.363 0 0 0 460.016 39.508 A 29.47 29.47 0 0 0 464.7 35.1 Q 467.854 31.383 468.64 27.751 A 11.328 11.328 0 0 0 468.9 25.35 A 8.303 8.303 0 0 0 466.97 20.073 Q 466 18.854 464.543 17.741 A 19.441 19.441 0 0 0 463.425 16.95 A 16.568 16.568 0 0 0 459.386 15.09 Q 455.195 13.743 448.808 13.439 A 82.3 82.3 0 0 0 444.9 13.35 Q 435.6 13.35 425.4 17.4 A 86.766 86.766 0 0 0 409.221 25.962 A 99.303 99.303 0 0 0 405.6 28.5 Q 396 35.55 388.2 44.475 A 81.434 81.434 0 0 0 378.314 58.411 A 72.631 72.631 0 0 0 375.825 63.3 A 50.749 50.749 0 0 0 372.158 74.191 A 41.931 41.931 0 0 0 371.25 82.8 A 29.769 29.769 0 0 0 372.09 90.067 A 20.96 20.96 0 0 0 377.25 99.6 Q 383.25 105.9 393.9 105.9 A 34.879 34.879 0 0 0 404.385 104.231 A 43.357 43.357 0 0 0 408.9 102.525 A 73.33 73.33 0 0 0 419.348 96.821 A 87.553 87.553 0 0 0 424.05 93.525 Q 431.55 87.9 438.6 81.15 Q 445.65 74.4 451.875 67.65 A 434.127 434.127 0 0 0 457.744 61.163 A 317.583 317.583 0 0 0 462.9 55.2 A 10.769 10.769 0 0 1 465.065 53.254 A 7.839 7.839 0 0 1 469.5 51.9 A 6.207 6.207 0 0 1 471.844 52.331 A 5.769 5.769 0 0 1 473.775 53.625 Q 475.204 55.054 475.449 57.665 A 12.134 12.134 0 0 1 475.5 58.8 Q 475.5 62.1 473.55 66.6 A 106.441 106.441 0 0 1 471.139 71.67 Q 468.9 76.087 465.9 81.15 A 267.066 267.066 0 0 1 460.763 89.456 A 329.837 329.837 0 0 1 454.95 98.175 Q 448.8 107.1 441.9 115.8 A 273.128 273.128 0 0 1 428.765 131.19 A 249.683 249.683 0 0 1 427.875 132.15 A 139.011 139.011 0 0 1 420.368 139.643 A 106.586 106.586 0 0 1 413.85 145.2 A 49.158 49.158 0 0 1 404.391 151.126 A 60.287 60.287 0 0 1 399.3 153.3 A 52.221 52.221 0 0 1 391.129 155.662 A 39.718 39.718 0 0 1 383.4 156.45 A 24.601 24.601 0 0 1 377.095 155.675 A 19.584 19.584 0 0 1 371.025 152.925 A 11.068 11.068 0 0 1 366.704 146.968 Q 365.85 144.323 365.85 140.85 A 27.615 27.615 0 0 1 365.944 138.487 Q 366.225 135.225 367.35 133.65 Q 368.85 131.55 370.8 131.55 Q 372.491 131.55 374.231 132.911 A 10.829 10.829 0 0 1 375.075 133.65 A 10.399 10.399 0 0 1 377.888 138.462 A 12.588 12.588 0 0 1 378 138.9 A 11.865 11.865 0 0 0 378.658 140.686 Q 379.486 142.448 380.775 143.325 A 7.393 7.393 0 0 0 384.901 144.599 A 8.943 8.943 0 0 0 385.05 144.6 A 13.698 13.698 0 0 0 388.494 144.138 A 18.942 18.942 0 0 0 391.425 143.1 A 54.365 54.365 0 0 0 397.121 140.142 A 60.89 60.89 0 0 0 398.175 139.5 A 78.33 78.33 0 0 0 401.759 137.137 A 62.49 62.49 0 0 0 404.25 135.3 A 164.445 164.445 0 0 0 405.516 134.306 Q 407.288 132.9 408.3 132 A 165.815 165.815 0 0 0 418.383 122.466 A 191.201 191.201 0 0 0 421.725 118.95 Q 428.4 111.75 434.475 104.325 Q 440.55 96.9 445.275 90.45 A 607.137 607.137 0 0 0 447.521 87.366 Q 450.713 82.95 452.85 79.8 Q 453.3 79.05 454.05 79.05 A 1.49 1.49 0 0 1 454.95 79.358 Q 455.155 79.509 455.346 79.734 A 3.043 3.043 0 0 1 455.4 79.8 Q 455.964 80.504 455.469 81.341 A 2.392 2.392 0 0 1 455.4 81.45 Q 452.822 85.266 449.429 89.932 A 478.936 478.936 0 0 1 446.175 94.35 A 327.009 327.009 0 0 1 438.151 104.669 A 381.859 381.859 0 0 1 434.175 109.5 Q 427.65 117.3 420.6 124.575 A 160.19 160.19 0 0 1 411.788 133.024 A 134.551 134.551 0 0 1 406.5 137.475 A 69.208 69.208 0 0 1 400.418 141.837 Q 397.075 143.957 393.839 145.38 A 41.069 41.069 0 0 1 392.85 145.8 Q 390.9 146.55 388.875 147.075 Q 386.85 147.6 384.75 147.6 Q 381.6 147.6 378.975 145.875 Q 376.873 144.494 375.685 141.429 A 17.047 17.047 0 0 1 375.15 139.8 A 22.719 22.719 0 0 0 374.567 138.016 Q 373.491 135.17 372.148 134.661 A 1.674 1.674 0 0 0 371.55 134.55 A 1.334 1.334 0 0 0 370.719 134.859 Q 370.159 135.295 369.675 136.35 A 7.851 7.851 0 0 0 369.173 137.869 Q 368.992 138.657 368.913 139.593 A 18.454 18.454 0 0 0 368.85 141.15 A 16.888 16.888 0 0 0 369.189 144.652 Q 369.631 146.736 370.651 148.284 A 8.582 8.582 0 0 0 372.9 150.6 A 15.146 15.146 0 0 0 378.45 152.98 Q 380.535 153.435 382.944 153.45 A 26.355 26.355 0 0 0 383.1 153.45 Q 390.15 153.45 398.175 150.45 A 55.308 55.308 0 0 0 406.727 146.43 A 45.101 45.101 0 0 0 412.05 142.8 A 106.777 106.777 0 0 0 419.307 136.587 A 141.061 141.061 0 0 0 425.85 130.05 A 232.091 232.091 0 0 0 437.958 116.064 A 255.002 255.002 0 0 0 439.65 113.925 Q 446.4 105.3 452.475 96.525 A 294.78 294.78 0 0 0 459.521 85.882 A 240.033 240.033 0 0 0 463.275 79.725 A 201.36 201.36 0 0 0 466.555 73.949 Q 469.069 69.337 470.85 65.4 A 28.502 28.502 0 0 0 471.53 63.829 Q 471.816 63.106 472.016 62.46 A 13.014 13.014 0 0 0 472.275 61.5 Q 472.65 59.85 472.65 58.65 A 8.054 8.054 0 0 0 472.615 57.866 Q 472.534 57.044 472.27 56.527 A 2.103 2.103 0 0 0 472.2 56.4 A 5.346 5.346 0 0 0 471.919 55.975 Q 471.61 55.556 471.3 55.35 Q 470.7 54.9 469.65 54.9 Q 467.36 54.9 465.48 57.085 A 9.914 9.914 0 0 0 465.3 57.3 Q 460.819 62.481 455.096 68.774 A 863.282 863.282 0 0 1 454.275 69.675 A 277.818 277.818 0 0 1 444.389 79.955 A 311.571 311.571 0 0 1 440.85 83.4 Q 433.65 90.3 425.775 96.075 A 88.921 88.921 0 0 1 415.126 102.819 A 75.831 75.831 0 0 1 409.875 105.375 A 41.853 41.853 0 0 1 399.873 108.404 A 36.484 36.484 0 0 1 393.9 108.9 A 32.529 32.529 0 0 1 386.023 108 A 22.261 22.261 0 0 1 375.075 101.775 Q 368.25 94.65 368.25 82.8 Q 368.25 72.6 373.05 62.25 A 83.188 83.188 0 0 1 383.86 45.015 A 94.555 94.555 0 0 1 385.875 42.6 Q 393.9 33.3 403.95 26.025 A 98.154 98.154 0 0 1 419.28 16.862 A 86.859 86.859 0 0 1 424.575 14.55 A 61.779 61.779 0 0 1 435.499 11.288 A 48.862 48.862 0 0 1 444.9 10.35 A 75.624 75.624 0 0 1 452.043 10.662 Q 461.104 11.525 465.675 14.775 Q 470.379 18.118 471.528 22.361 A 10.806 10.806 0 0 1 471.9 25.2 Q 471.9 29.4 469.35 33.675 A 26.594 26.594 0 0 1 465.372 38.755 A 34.072 34.072 0 0 1 462.225 41.55 A 37.984 37.984 0 0 1 454.207 46.351 A 44.596 44.596 0 0 1 451.65 47.4 A 36.009 36.009 0 0 1 438.907 49.65 L 438.9 49.65 Q 436.5 49.65 432.45 48.75 A 52.244 52.244 0 0 1 425.305 46.601 A 58.197 58.197 0 0 1 424.275 46.2 A 26.087 26.087 0 0 1 420.252 44.193 A 20.79 20.79 0 0 1 417.3 42 A 9.568 9.568 0 0 1 415.578 40.004 A 7.065 7.065 0 0 1 414.45 36.15 Z M 409.05 39.6 L 409.05 39.45 Q 409.05 37.95 410.55 37.95 Q 411.827 37.95 412.017 38.927 A 1.951 1.951 0 0 1 412.05 39.3 A 11.018 11.018 0 0 0 416.405 47.017 A 13.8 13.8 0 0 0 416.925 47.4 A 26.968 26.968 0 0 0 423.512 50.745 A 33.258 33.258 0 0 0 426.975 51.75 Q 432.75 53.1 437.7 53.1 A 51.813 51.813 0 0 0 447.886 52.144 A 39.14 39.14 0 0 0 457.875 48.75 Q 466.5 44.4 471.225 37.875 A 27.624 27.624 0 0 0 474.284 32.561 A 19.708 19.708 0 0 0 475.95 24.75 Q 475.95 19.65 472.875 15.375 A 16.779 16.779 0 0 0 469.069 11.621 Q 466.603 9.829 463.2 8.475 Q 458.405 6.568 451.472 6.046 A 73.74 73.74 0 0 0 445.95 5.85 A 69.37 69.37 0 0 0 429.362 7.935 A 84.058 84.058 0 0 0 422.4 9.975 Q 410.25 14.1 399 21.45 Q 387.75 28.8 378.825 38.55 A 83.035 83.035 0 0 0 365.407 58.04 A 78.07 78.07 0 0 0 364.65 59.625 Q 359.4 70.95 359.4 83.1 A 38.921 38.921 0 0 0 360.583 92.966 A 27.621 27.621 0 0 0 368.175 106.125 A 29.562 29.562 0 0 0 383.571 113.892 A 42.411 42.411 0 0 0 391.5 114.6 Q 401.7 114.6 411.675 111.075 Q 421.65 107.55 429 100.65 A 1.568 1.568 0 0 1 429.463 100.323 A 1.409 1.409 0 0 1 430.05 100.2 A 2.375 2.375 0 0 1 430.703 100.282 Q 431.7 100.567 431.7 101.85 Q 431.7 102.3 431.1 102.9 Q 423.3 110.25 412.725 113.925 Q 402.15 117.6 391.5 117.6 Q 381.15 117.6 373.2 113.4 Q 365.25 109.2 360.825 101.475 A 32.843 32.843 0 0 1 357.023 90.676 A 44.246 44.246 0 0 1 356.4 83.1 Q 356.4 70.35 361.8 58.425 Q 367.2 46.5 376.5 36.45 Q 385.8 26.4 397.425 18.825 Q 409.05 11.25 421.575 7.05 A 81.235 81.235 0 0 1 437.346 3.392 A 69.417 69.417 0 0 1 445.95 2.85 A 71.723 71.723 0 0 1 453.395 3.213 Q 460.027 3.907 464.85 5.925 A 32.186 32.186 0 0 1 469.791 8.48 Q 472.448 10.181 474.312 12.263 A 17.683 17.683 0 0 1 475.65 13.95 Q 479.1 18.9 479.1 24.75 Q 479.1 30.3 476.25 35.85 A 30.719 30.719 0 0 1 471.091 43.02 A 38.364 38.364 0 0 1 467.925 45.975 A 40.571 40.571 0 0 1 459.478 51.363 A 50.156 50.156 0 0 1 454.8 53.325 A 45.841 45.841 0 0 1 444.535 55.71 A 58.026 58.026 0 0 1 437.7 56.1 A 42.449 42.449 0 0 1 434.449 55.967 Q 432.075 55.784 429.3 55.35 Q 424.5 54.6 419.85 52.725 A 24.441 24.441 0 0 1 415.176 50.253 A 20.112 20.112 0 0 1 412.125 47.7 A 10.689 10.689 0 0 1 409.141 41.248 A 14.563 14.563 0 0 1 409.05 39.6 Z" id="4" vector-effect="non-scaling-stroke"/><path d="M 480.45 104.1 A 37.33 37.33 0 0 0 489.504 102.97 A 45.533 45.533 0 0 0 499.725 99 Q 509.4 93.9 516.15 85.2 A 2.66 2.66 0 0 0 516.278 85.035 Q 516.852 84.224 516.375 83.475 A 2.211 2.211 0 0 0 516.174 83.205 A 1.558 1.558 0 0 0 514.95 82.65 A 1.153 1.153 0 0 0 514.196 82.934 A 1.854 1.854 0 0 0 513.9 83.25 Q 507.45 91.65 498.375 96.375 A 46.108 46.108 0 0 1 492.655 98.892 A 35.963 35.963 0 0 1 480.45 101.1 A 15.112 15.112 0 0 1 479.849 101.088 Q 478.567 101.037 477.474 100.765 A 8.039 8.039 0 0 1 474.825 99.6 A 4.82 4.82 0 0 1 472.852 96.644 A 7.874 7.874 0 0 1 472.65 94.8 Q 472.65 92.482 473.903 89.826 A 21.561 21.561 0 0 1 475.425 87.15 A 43.611 43.611 0 0 1 478.248 83.359 A 55.96 55.96 0 0 1 482.475 78.825 Q 486.75 74.7 491.175 71.55 A 45.692 45.692 0 0 1 493.958 69.709 Q 495.289 68.901 496.499 68.32 A 18.595 18.595 0 0 1 498.9 67.35 Q 499.196 67.223 499.408 67.061 A 1.28 1.28 0 0 0 499.95 66 A 3.552 3.552 0 0 0 499.95 65.953 Q 499.934 64.73 499.07 64.44 A 1.945 1.945 0 0 0 498.45 64.35 A 0.528 0.528 0 0 0 498.401 64.352 Q 498.356 64.356 498.319 64.369 A 0.235 0.235 0 0 0 498.225 64.425 A 0.222 0.222 0 0 1 498.167 64.466 Q 498.101 64.5 498 64.5 Q 494.55 65.55 489.75 68.85 Q 484.95 72.15 480.375 76.575 A 58.199 58.199 0 0 0 477.662 79.377 A 49.034 49.034 0 0 0 472.725 85.8 A 26.402 26.402 0 0 0 471.892 87.19 Q 470.912 88.95 470.36 90.626 A 13.323 13.323 0 0 0 469.65 94.8 A 15.01 15.01 0 0 0 469.653 95.104 Q 469.752 99.963 473.025 102 Q 476.4 104.1 480.45 104.1 Z M 481.607 89.904 A 7.806 7.806 0 0 1 479.25 88.95 A 2.322 2.322 0 0 1 478.837 88.691 Q 478.35 88.302 478.35 87.75 Q 478.35 87 479.025 86.475 Q 479.7 85.95 480.6 86.4 A 11.058 11.058 0 0 0 482.013 86.886 Q 483.01 87.15 483.9 87.15 A 12.428 12.428 0 0 0 486.985 86.738 Q 488.352 86.388 489.815 85.74 A 23.38 23.38 0 0 0 490.8 85.275 Q 494.55 83.4 498 80.4 A 31.277 31.277 0 0 0 501.815 76.474 A 26.447 26.447 0 0 0 503.625 73.95 A 16.369 16.369 0 0 0 504.951 71.405 Q 505.8 69.319 505.8 67.35 Q 505.8 62.446 501.795 61.453 A 9.55 9.55 0 0 0 499.5 61.2 Q 492.45 61.2 486.375 64.875 Q 480.3 68.55 475.275 74.025 A 102.493 102.493 0 0 0 467.852 83.07 A 92.078 92.078 0 0 0 466.35 85.2 Q 465.9 85.95 465.15 85.95 A 1.389 1.389 0 0 1 464.175 85.55 A 2.219 2.219 0 0 1 463.875 85.2 A 1.392 1.392 0 0 1 463.688 84.83 Q 463.495 84.233 463.95 83.55 Q 467.85 77.85 473.1 72 Q 478.35 66.15 485.025 62.175 Q 491.7 58.2 499.5 58.2 A 11.195 11.195 0 0 1 502.657 58.625 A 8.814 8.814 0 0 1 506.175 60.6 A 7.831 7.831 0 0 1 508.544 64.822 A 11.796 11.796 0 0 1 508.8 67.35 A 14.065 14.065 0 0 1 507.577 73.008 A 18.31 18.31 0 0 1 506.325 75.375 A 32.442 32.442 0 0 1 501.412 81.438 A 37.489 37.489 0 0 1 500.025 82.725 A 34.394 34.394 0 0 1 492.796 87.666 A 31.973 31.973 0 0 1 491.85 88.125 A 25.145 25.145 0 0 1 488.566 89.398 Q 486.789 89.939 485.156 90.091 A 13.549 13.549 0 0 1 483.9 90.15 A 10.196 10.196 0 0 1 481.607 89.904 Z M 473.012 112.246 A 31.373 31.373 0 0 1 471.75 111.9 A 16.491 16.491 0 0 1 466.984 109.647 A 15.07 15.07 0 0 1 464.925 107.925 A 9.281 9.281 0 0 1 462.358 102.903 A 13.312 13.312 0 0 1 462.15 100.5 A 2.63 2.63 0 0 1 462.22 99.867 Q 462.425 99.041 463.24 98.886 A 2.194 2.194 0 0 1 463.65 98.85 A 1.945 1.945 0 0 1 464.27 98.94 Q 465.134 99.23 465.15 100.453 A 3.552 3.552 0 0 1 465.15 100.5 A 11.736 11.736 0 0 0 465.271 102.241 Q 465.519 103.891 466.275 105 Q 467.049 106.134 468.637 107.127 A 15.863 15.863 0 0 0 470.25 108 A 21.063 21.063 0 0 0 474.394 109.417 A 23.866 23.866 0 0 0 475.125 109.575 A 31.792 31.792 0 0 0 476.999 109.895 Q 478.482 110.1 479.7 110.1 Q 485.25 110.1 490.575 108 Q 495.9 105.9 500.4 102.6 Q 500.649 102.352 501.103 102.309 A 2.11 2.11 0 0 1 501.3 102.3 Q 502.8 102.3 502.8 103.8 A 1.506 1.506 0 0 1 502.673 104.428 Q 502.524 104.757 502.2 105 Q 497.4 108.6 491.625 110.85 Q 485.85 113.1 479.7 113.1 A 27.355 27.355 0 0 1 473.012 112.246 Z" id="5" vector-effect="non-scaling-stroke"/><path d="M 567.3 102.9 A 11.209 11.209 0 0 0 567.786 102.889 Q 570.135 102.788 572.485 101.7 A 17.947 17.947 0 0 0 575.7 99.75 Q 579.9 96.6 583.425 92.4 A 159.15 159.15 0 0 0 585.537 89.832 Q 587.623 87.239 589.05 85.2 A 2.39 2.39 0 0 0 589.194 85.01 Q 589.622 84.377 589.32 83.821 A 1.423 1.423 0 0 0 589.125 83.55 A 3.365 3.365 0 0 0 588.977 83.395 Q 588.753 83.176 588.52 83.037 A 1.582 1.582 0 0 0 587.7 82.8 A 1.153 1.153 0 0 0 586.946 83.084 A 1.854 1.854 0 0 0 586.65 83.4 A 53.397 53.397 0 0 1 586.254 83.954 Q 584.992 85.694 583.107 88.027 A 187.714 187.714 0 0 1 581.55 89.925 A 54.125 54.125 0 0 1 580.666 90.964 A 48.094 48.094 0 0 1 574.5 96.9 Q 570.75 99.9 567.3 99.9 A 8.14 8.14 0 0 1 566.318 99.838 A 10.418 10.418 0 0 1 565.05 99.6 A 2.943 2.943 0 0 1 565.011 99.59 Q 563.85 99.283 563.85 98.25 A 1.601 1.601 0 0 1 563.852 98.181 Q 563.876 97.615 564.3 97.05 Q 565.5 94.8 567.75 90.75 Q 570 86.7 572.4 82.125 A 147.636 147.636 0 0 0 574.632 77.7 A 113.428 113.428 0 0 0 576.525 73.575 Q 577.738 70.78 578.098 68.838 A 8.229 8.229 0 0 0 578.25 67.35 A 10.922 10.922 0 0 0 578.072 65.331 A 7.737 7.737 0 0 0 576.225 61.5 Q 574.2 59.25 571.275 58.275 Q 568.35 57.3 565.65 57.3 Q 559.2 57.3 553.725 60.6 Q 548.25 63.9 543.75 68.7 Q 539.25 73.5 535.35 78.15 Q 534.75 78.9 535.275 79.725 A 2.896 2.896 0 0 0 535.327 79.803 Q 535.837 80.55 536.55 80.55 A 1.838 1.838 0 0 0 536.6 80.549 Q 537.315 80.53 537.75 79.95 A 163.264 163.264 0 0 1 540.443 76.758 A 196.936 196.936 0 0 1 545.4 71.25 Q 549.6 66.75 554.7 63.525 Q 559.8 60.3 565.65 60.3 A 14.941 14.941 0 0 1 566.689 60.336 A 12.202 12.202 0 0 1 572.325 62.1 A 7.641 7.641 0 0 1 572.728 62.365 Q 574.189 63.397 574.804 64.906 A 6.424 6.424 0 0 1 575.25 67.35 Q 575.25 69.15 573.6 72.975 Q 571.95 76.8 569.55 81.225 Q 567.15 85.65 564.9 89.625 A 871.253 871.253 0 0 0 564.86 89.696 Q 563.201 92.628 562.2 94.448 A 147.229 147.229 0 0 0 561.6 95.55 Q 560.85 96.9 560.85 98.4 A 4.782 4.782 0 0 0 560.858 98.669 Q 560.93 99.951 561.702 100.845 A 4.267 4.267 0 0 0 562.875 101.775 Q 564.9 102.9 567.3 102.9 Z M 565.95 65.1 L 566.4 65.1 Q 567.9 65.1 567.9 66.6 Q 567.9 67.633 566.739 67.94 A 2.943 2.943 0 0 1 566.7 67.95 Q 559.05 69.9 553.575 73.95 Q 548.1 78 544.2 83.175 A 84.307 84.307 0 0 0 537.421 93.666 A 78.228 78.228 0 0 0 537.375 93.75 A 675.473 675.473 0 0 1 534.544 98.925 A 522.279 522.279 0 0 1 531.9 103.65 A 40.611 40.611 0 0 1 529.653 107.199 Q 528.424 108.924 527.131 110.285 A 22.834 22.834 0 0 1 526.5 110.925 A 9.965 9.965 0 0 1 523.528 112.962 A 8.987 8.987 0 0 1 519.9 113.7 A 7.426 7.426 0 0 1 518.141 113.505 A 4.579 4.579 0 0 1 515.325 111.6 Q 513.9 109.5 513.9 107.1 A 6.492 6.492 0 0 1 514.046 105.81 Q 514.309 104.521 515.051 102.796 A 30.332 30.332 0 0 1 515.55 101.7 Q 517.2 98.25 519.525 94.35 Q 521.85 90.45 523.95 87 Q 525.681 84.156 526.699 82.23 A 39.433 39.433 0 0 0 527.1 81.45 A 1.945 1.945 0 0 1 527.416 80.985 A 1.357 1.357 0 0 1 528.45 80.55 A 1.614 1.614 0 0 1 529.65 81.069 A 2.165 2.165 0 0 1 529.725 81.15 Q 530.25 81.75 529.8 82.65 A 42.631 42.631 0 0 1 529.28 83.653 Q 528.394 85.312 526.875 87.9 Q 524.85 91.35 522.525 95.25 A 151.227 151.227 0 0 0 520.431 98.87 Q 519.465 100.597 518.657 102.166 A 90.445 90.445 0 0 0 518.55 102.375 A 30.243 30.243 0 0 0 517.848 103.836 Q 516.922 105.915 516.901 107.048 A 2.808 2.808 0 0 0 516.9 107.1 Q 516.9 110.7 519.9 110.7 A 6.357 6.357 0 0 0 523.782 109.358 A 9.682 9.682 0 0 0 525.3 107.925 A 29.545 29.545 0 0 0 527.25 105.386 Q 528.675 103.322 530.1 100.65 Q 532.5 96.15 535.5 90.9 A 84.245 84.245 0 0 1 540.591 83.067 A 95.68 95.68 0 0 1 542.55 80.475 A 47.385 47.385 0 0 1 550.901 72.223 A 53.447 53.447 0 0 1 552.3 71.175 A 35.712 35.712 0 0 1 560.527 66.782 A 45.525 45.525 0 0 1 565.95 65.1 Z M 559.65 113.85 Q 565.2 113.85 570.15 111.75 Q 575.1 109.65 579.3 106.5 Q 579.624 106.257 579.773 105.928 A 1.506 1.506 0 0 0 579.9 105.3 Q 579.9 103.8 578.4 103.8 A 2.11 2.11 0 0 0 578.203 103.809 Q 577.749 103.852 577.5 104.1 A 35.512 35.512 0 0 1 576.306 104.969 A 38.856 38.856 0 0 1 569.1 108.9 Q 564.45 110.85 559.65 110.85 A 11.864 11.864 0 0 1 557.855 110.719 A 8.74 8.74 0 0 1 553.425 108.75 A 6.659 6.659 0 0 1 552.968 108.324 Q 550.95 106.257 550.95 102.6 A 13.14 13.14 0 0 1 551.109 100.621 Q 551.302 99.362 551.725 97.949 A 30.108 30.108 0 0 1 552.75 95.1 Q 554.55 90.75 556.8 86.7 Q 558.6 83.25 560.1 81.075 L 561.6 78.9 A 3.214 3.214 0 0 0 561.703 78.706 Q 562.151 77.78 561.675 77.1 A 2.219 2.219 0 0 0 561.376 76.75 A 1.389 1.389 0 0 0 560.4 76.35 Q 559.65 76.35 559.2 77.1 Q 557.982 78.881 556.558 81.19 A 171.988 171.988 0 0 0 554.775 84.15 Q 552.3 88.35 550.425 92.7 A 43.537 43.537 0 0 0 549.802 94.222 Q 548.47 97.665 548.1 100.5 A 5.358 5.358 0 0 0 547.998 101.011 A 4.177 4.177 0 0 0 547.95 101.625 L 547.95 102.75 A 13.957 13.957 0 0 0 548.171 105.293 A 9.238 9.238 0 0 0 551.475 111 Q 555 113.85 559.65 113.85 Z M 514.139 85.633 Q 513.963 85.48 513.805 85.254 A 2.987 2.987 0 0 1 513.675 85.05 A 2.017 2.017 0 0 1 513.517 84.715 Q 513.306 84.126 513.608 83.606 A 1.687 1.687 0 0 1 513.75 83.4 A 400.808 400.808 0 0 0 517.575 79.022 Q 519.877 76.345 521.775 74.025 Q 525.15 69.9 528.225 65.7 A 579.849 579.849 0 0 0 531.432 61.275 A 761.191 761.191 0 0 0 534.9 56.4 A 11.759 11.759 0 0 1 536.43 54.675 A 8.72 8.72 0 0 1 538.65 53.175 A 11.097 11.097 0 0 1 540.649 52.459 A 8.501 8.501 0 0 1 542.7 52.2 A 9.266 9.266 0 0 1 545.899 52.738 A 8.406 8.406 0 0 1 548.175 54 Q 550.5 55.8 550.5 58.05 A 3.531 3.531 0 0 1 549.97 59.894 A 4.926 4.926 0 0 1 549.45 60.6 A 1.568 1.568 0 0 1 548.987 60.927 A 1.409 1.409 0 0 1 548.4 61.05 Q 547.687 61.05 547.177 60.303 A 2.896 2.896 0 0 1 547.125 60.225 Q 546.649 59.476 547.223 58.665 A 2.66 2.66 0 0 1 547.35 58.5 A 0.382 0.382 0 0 0 547.429 58.377 Q 547.481 58.255 547.495 58.059 A 2.226 2.226 0 0 0 547.5 57.9 Q 547.5 57.45 547.05 56.85 Q 546.6 56.25 544.95 55.65 Q 543.9 55.2 542.7 55.2 A 5.947 5.947 0 0 0 540.918 55.484 A 7.676 7.676 0 0 0 539.925 55.875 A 5.838 5.838 0 0 0 538.557 56.794 Q 538.023 57.266 537.527 57.899 A 10.534 10.534 0 0 0 537.3 58.2 A 6555.083 6555.083 0 0 0 533.719 63.075 A 4890.414 4890.414 0 0 0 530.475 67.5 Q 527.4 71.7 524.1 75.9 Q 521.264 79.509 517.431 83.894 A 297.298 297.298 0 0 1 516.15 85.35 Q 515.715 85.93 515 85.949 A 1.838 1.838 0 0 1 514.95 85.95 A 1.21 1.21 0 0 1 514.139 85.633 Z" id="6" vector-effect="non-scaling-stroke"/><path d="M 621.6 68.7 L 620.85 69.3 A 144.723 144.723 0 0 0 618.558 71.409 A 161.816 161.816 0 0 0 617.775 72.15 Q 616.2 73.65 615.15 75.45 A 719.774 719.774 0 0 1 613.407 79.069 A 947.623 947.623 0 0 1 611.475 83.025 Q 609.45 87.15 608.025 91.2 A 29.381 29.381 0 0 0 607.129 94.227 Q 606.6 96.48 606.6 98.4 Q 606.6 101.472 608.86 101.809 A 4.009 4.009 0 0 0 609.45 101.85 Q 610.4 101.85 611.646 101.479 A 15.038 15.038 0 0 0 612.75 101.1 A 30.701 30.701 0 0 0 617.176 98.777 Q 619.721 97.181 622.35 94.95 Q 626.092 91.775 630.262 86.801 A 114.921 114.921 0 0 0 633 83.4 A 1.854 1.854 0 0 1 633.296 83.084 A 1.153 1.153 0 0 1 634.05 82.8 A 1.721 1.721 0 0 1 635.355 83.387 A 2.563 2.563 0 0 1 635.55 83.625 Q 636.15 84.45 635.4 85.2 Q 631.84 89.794 628.676 93.069 A 57.889 57.889 0 0 1 626.775 94.95 A 46.407 46.407 0 0 1 620.115 100.141 A 54.453 54.453 0 0 1 617.55 101.7 A 44.687 44.687 0 0 1 615.599 102.77 Q 614.669 103.248 613.836 103.609 A 20.113 20.113 0 0 1 612.6 104.1 Q 610.5 104.85 608.85 104.85 A 5.993 5.993 0 0 1 607.328 104.67 A 3.742 3.742 0 0 1 604.875 102.75 A 9.593 9.593 0 0 1 603.757 98.496 A 11.329 11.329 0 0 1 603.75 98.1 Q 603.75 96.354 604.476 93.363 A 52.539 52.539 0 0 1 604.8 92.1 A 61.533 61.533 0 0 1 606.057 88.031 A 83.353 83.353 0 0 1 607.725 83.625 A 62.536 62.536 0 0 1 611.555 75.826 A 57.196 57.196 0 0 1 612 75.075 A 38.639 38.639 0 0 1 613.975 72.105 Q 615.436 70.125 616.95 68.7 Q 618.3 67.35 619.8 66.3 Q 620.851 64.828 621.166 63.504 A 4.769 4.769 0 0 0 621.3 62.4 A 3.85 3.85 0 0 0 619.938 59.365 A 5.292 5.292 0 0 0 619.275 58.875 Q 617.25 57.6 614.85 57.6 A 8.704 8.704 0 0 0 613.374 57.717 Q 611.878 57.975 610.95 58.8 Q 608.85 60.75 606.525 63.375 Q 604.2 66 601.65 69.45 A 486.114 486.114 0 0 0 598.875 73.031 A 589.066 589.066 0 0 0 595.95 76.875 A 142.1 142.1 0 0 1 592.725 80.981 A 185.756 185.756 0 0 1 589.05 85.35 Q 588.615 85.93 587.9 85.949 A 1.838 1.838 0 0 1 587.85 85.95 A 1.21 1.21 0 0 1 587.039 85.633 Q 586.863 85.48 586.705 85.254 A 2.987 2.987 0 0 1 586.575 85.05 A 2.017 2.017 0 0 1 586.417 84.715 Q 586.206 84.126 586.508 83.606 A 1.687 1.687 0 0 1 586.65 83.4 A 145.548 145.548 0 0 0 591.15 78.145 A 118.079 118.079 0 0 0 593.625 75 Q 596.7 70.95 599.25 67.65 A 278.171 278.171 0 0 1 601.857 64.369 A 209.068 209.068 0 0 1 604.275 61.425 A 47.303 47.303 0 0 1 607.211 58.22 A 39.112 39.112 0 0 1 609 56.55 A 7.744 7.744 0 0 1 614.142 54.458 A 10.072 10.072 0 0 1 614.55 54.45 A 10.723 10.723 0 0 1 621.551 57.034 A 13.401 13.401 0 0 1 621.6 57.075 A 10.149 10.149 0 0 1 623.394 58.977 A 7.051 7.051 0 0 1 624.75 63.15 Q 624.75 65.834 622.23 68.157 A 12.951 12.951 0 0 1 621.6 68.7 Z M 608.1 114 Q 600.75 114 596.625 108.9 A 16.151 16.151 0 0 1 593.082 99.732 Q 593.024 98.964 593.024 98.166 A 23.401 23.401 0 0 1 593.1 96.3 Q 593.25 94.05 594.45 89.925 A 66.633 66.633 0 0 1 596.63 83.653 A 75.61 75.61 0 0 1 597.525 81.525 A 52.195 52.195 0 0 1 598.942 78.54 Q 600.132 76.237 601.35 74.55 Q 601.785 73.97 602.5 73.951 A 1.838 1.838 0 0 1 602.55 73.95 A 1.49 1.49 0 0 1 603.45 74.258 Q 603.655 74.409 603.846 74.634 A 3.043 3.043 0 0 1 603.9 74.7 Q 604.5 75.45 603.75 76.35 A 21.681 21.681 0 0 0 602.411 78.382 Q 601.753 79.502 601.106 80.85 A 47.496 47.496 0 0 0 600.225 82.8 Q 598.5 86.85 597.375 90.75 A 67.672 67.672 0 0 0 596.874 92.578 Q 596.398 94.42 596.206 95.694 A 12.671 12.671 0 0 0 596.1 96.6 A 16.961 16.961 0 0 0 596.044 97.971 A 14.803 14.803 0 0 0 598.8 106.65 A 10.251 10.251 0 0 0 606.178 111.017 A 15.569 15.569 0 0 0 608.25 111.15 A 16.225 16.225 0 0 0 611.503 110.795 Q 614.201 110.242 617.4 108.825 Q 621.464 107.025 626.068 103.293 A 68.146 68.146 0 0 0 628.8 100.95 Q 629.049 100.702 629.503 100.659 A 2.11 2.11 0 0 1 629.7 100.65 A 1.77 1.77 0 0 1 630.467 100.811 Q 630.964 101.046 631.275 101.625 A 1.789 1.789 0 0 1 631.404 101.923 Q 631.646 102.673 630.981 103.28 A 2.391 2.391 0 0 1 630.9 103.35 A 62.696 62.696 0 0 1 625.964 107.311 Q 623.402 109.15 620.955 110.436 A 31.999 31.999 0 0 1 618.675 111.525 Q 613.704 113.656 609.455 113.952 A 19.46 19.46 0 0 1 608.1 114 Z M 623.03 50.479 A 10.145 10.145 0 0 1 622.95 50.4 A 8.371 8.371 0 0 1 620.401 44.362 A 10.092 10.092 0 0 1 620.4 44.25 A 9.074 9.074 0 0 1 621.078 40.702 A 8.561 8.561 0 0 1 622.95 37.95 A 8.371 8.371 0 0 1 628.988 35.401 A 10.092 10.092 0 0 1 629.1 35.4 A 9.074 9.074 0 0 1 632.648 36.078 A 8.561 8.561 0 0 1 635.4 37.95 A 8.54 8.54 0 0 1 637.95 44.133 A 10.943 10.943 0 0 1 637.95 44.25 A 8.371 8.371 0 0 1 635.479 50.32 A 10.145 10.145 0 0 1 635.4 50.4 A 8.54 8.54 0 0 1 629.217 52.949 A 10.943 10.943 0 0 1 629.1 52.95 A 8.371 8.371 0 0 1 623.03 50.479 Z M 629.1 49.95 A 6.45 6.45 0 0 0 631.159 49.634 A 5.434 5.434 0 0 0 633.3 48.3 A 5.496 5.496 0 0 0 634.95 44.325 A 6.932 6.932 0 0 0 634.95 44.25 A 6.45 6.45 0 0 0 634.634 42.191 A 5.434 5.434 0 0 0 633.3 40.05 A 5.568 5.568 0 0 0 629.647 38.42 A 7.451 7.451 0 0 0 629.1 38.4 A 5.75 5.75 0 0 0 626.715 38.886 A 5.587 5.587 0 0 0 625.05 40.05 A 5.568 5.568 0 0 0 623.42 43.703 A 7.451 7.451 0 0 0 623.4 44.25 A 5.75 5.75 0 0 0 623.887 46.635 A 5.587 5.587 0 0 0 625.05 48.3 A 5.496 5.496 0 0 0 629.025 49.95 A 6.932 6.932 0 0 0 629.1 49.95 Z" id="7" vector-effect="non-scaling-stroke"/><path d="M 649.875 103.875 A 4.404 4.404 0 0 1 649.19 102.585 Q 648.778 101.404 648.752 99.683 A 15.512 15.512 0 0 1 648.75 99.45 Q 648.75 96.3 650.1 92.475 A 56.142 56.142 0 0 1 653.102 85.542 A 62.158 62.158 0 0 1 653.475 84.825 A 111.856 111.856 0 0 1 655.402 81.331 Q 656.346 79.692 657.254 78.264 A 67.92 67.92 0 0 1 657.375 78.075 A 127.349 127.349 0 0 1 658.261 76.711 Q 659.505 74.824 660.291 73.812 A 17.703 17.703 0 0 1 660.3 73.8 Q 661.847 71.841 663.11 70.236 A 1992.769 1992.769 0 0 0 664.2 68.85 A 267.679 267.679 0 0 0 664.772 68.121 Q 665.781 66.826 666.086 66.394 A 4.55 4.55 0 0 0 666.15 66.3 Q 667.201 64.828 667.516 63.504 A 4.769 4.769 0 0 0 667.65 62.4 A 3.85 3.85 0 0 0 666.288 59.365 A 5.292 5.292 0 0 0 665.625 58.875 Q 663.6 57.6 661.2 57.6 A 8.704 8.704 0 0 0 659.724 57.717 Q 658.228 57.975 657.3 58.8 Q 655.2 60.75 652.875 63.375 Q 650.55 66 648 69.45 Q 645.3 72.9 642.3 76.8 Q 639.3 80.7 635.4 85.2 Q 634.965 85.78 634.25 85.799 A 1.838 1.838 0 0 1 634.2 85.8 Q 633.487 85.8 632.977 85.053 A 2.896 2.896 0 0 1 632.925 84.975 Q 632.4 84.15 633 83.4 A 145.548 145.548 0 0 0 637.5 78.145 A 118.079 118.079 0 0 0 639.975 75 Q 643.05 70.95 645.6 67.65 A 278.171 278.171 0 0 1 648.207 64.369 A 209.068 209.068 0 0 1 650.625 61.425 A 47.303 47.303 0 0 1 653.561 58.22 A 39.112 39.112 0 0 1 655.35 56.55 A 7.038 7.038 0 0 1 658.538 54.88 Q 659.686 54.6 661.05 54.6 Q 664.65 54.6 667.725 56.775 A 8.016 8.016 0 0 1 669.538 58.503 A 6.33 6.33 0 0 1 670.8 62.4 A 5.111 5.111 0 0 1 670.674 63.486 Q 670.558 64.015 670.338 64.605 A 12.378 12.378 0 0 1 669.9 65.625 Q 669.066 67.363 666.171 71.226 A 133.61 133.61 0 0 1 665.7 71.85 Q 657.6 82.5 654.75 88.65 A 37.486 37.486 0 0 0 653.07 92.896 Q 652.357 95.107 652.079 97.113 A 18.09 18.09 0 0 0 651.9 99.6 A 8.767 8.767 0 0 0 651.953 100.602 Q 652.072 101.631 652.459 102.214 A 1.776 1.776 0 0 0 652.8 102.6 Q 653.38 103.035 653.4 103.75 A 1.838 1.838 0 0 1 653.4 103.8 Q 653.4 105.076 652.423 105.267 A 1.951 1.951 0 0 1 652.05 105.3 Q 651.066 105.3 650.015 104.047 A 7.531 7.531 0 0 1 649.875 103.875 Z M 645.022 113.159 A 10.784 10.784 0 0 1 640.425 110.1 Q 637.364 106.683 637.209 100.968 A 22.729 22.729 0 0 1 637.2 100.35 Q 637.2 99.3 637.275 98.25 Q 637.35 97.2 637.5 96.15 Q 637.95 93.9 640.05 89.1 A 71.753 71.753 0 0 1 642.469 84.131 A 97.619 97.619 0 0 1 645.525 78.825 Q 648.9 73.35 652.65 69.3 A 1.854 1.854 0 0 1 652.946 68.984 A 1.153 1.153 0 0 1 653.7 68.7 A 1.392 1.392 0 0 1 654.467 68.911 Q 654.719 69.073 654.91 69.358 A 2.215 2.215 0 0 1 655.05 69.6 Q 655.5 70.5 654.75 71.25 A 60.408 60.408 0 0 0 650.013 77.35 A 71.624 71.624 0 0 0 648 80.475 A 103.914 103.914 0 0 0 645.132 85.481 A 76.384 76.384 0 0 0 642.825 90.15 A 72.945 72.945 0 0 0 641.933 92.21 Q 640.768 95.03 640.517 96.498 A 6.239 6.239 0 0 0 640.5 96.6 A 32.291 32.291 0 0 0 640.317 98.133 A 28.574 28.574 0 0 0 640.275 98.625 A 25.245 25.245 0 0 0 640.205 100.045 A 22.285 22.285 0 0 0 640.2 100.5 A 16.263 16.263 0 0 0 640.438 103.379 Q 641.002 106.507 642.9 108.3 A 9.243 9.243 0 0 0 649.439 110.85 A 11.89 11.89 0 0 0 649.5 110.85 A 14.127 14.127 0 0 0 653.469 110.235 Q 655.215 109.723 657.118 108.786 A 35.36 35.36 0 0 0 660.6 106.8 Q 665.483 103.661 670.185 97.549 A 68.977 68.977 0 0 0 672.9 93.75 Q 673.35 93 674.1 93 A 1.49 1.49 0 0 1 675 93.308 Q 675.205 93.459 675.396 93.684 A 3.043 3.043 0 0 1 675.45 93.75 Q 675.969 94.398 675.479 95.271 A 3.062 3.062 0 0 1 675.3 95.55 A 64.797 64.797 0 0 1 670.48 101.85 Q 667.729 104.999 664.858 107.302 A 33.904 33.904 0 0 1 662.025 109.35 A 34.636 34.636 0 0 1 657.345 111.912 Q 654.69 113.093 652.191 113.554 A 17.28 17.28 0 0 1 649.05 113.85 A 13.497 13.497 0 0 1 645.022 113.159 Z M 658.05 102 Q 656.55 102 656.55 100.5 A 1.794 1.794 0 0 1 656.55 100.486 Q 656.557 99.596 657.45 99.15 Q 664.65 95.25 669.75 88.5 Q 674.85 81.75 678.75 73.95 Q 682.65 66.15 686.25 59.4 A 5.802 5.802 0 0 1 687.648 57.573 A 5.511 5.511 0 0 1 688.875 56.775 Q 690.6 55.95 692.55 55.95 A 10.559 10.559 0 0 1 698.105 57.552 A 13.413 13.413 0 0 1 699.075 58.2 A 8.313 8.313 0 0 1 700.888 59.972 A 6.462 6.462 0 0 1 702.15 63.9 Q 702.15 66.376 700.312 68.852 A 13.094 13.094 0 0 1 700.2 69 Q 699.765 69.58 699.05 69.599 A 1.838 1.838 0 0 1 699 69.6 A 1.389 1.389 0 0 1 698.025 69.2 A 2.219 2.219 0 0 1 697.725 68.85 A 1.392 1.392 0 0 1 697.538 68.48 Q 697.345 67.883 697.8 67.2 A 8.286 8.286 0 0 0 698.569 65.98 Q 698.932 65.263 699.069 64.571 A 4.242 4.242 0 0 0 699.15 63.75 Q 699.15 61.763 697.513 60.595 A 5.462 5.462 0 0 0 697.05 60.3 A 9.496 9.496 0 0 0 694.954 59.401 A 7.614 7.614 0 0 0 692.85 59.1 Q 691.65 59.1 690.525 59.55 A 3.581 3.581 0 0 0 689.763 59.96 A 2.554 2.554 0 0 0 688.95 60.9 A 724.746 724.746 0 0 0 685.125 68.194 A 865.507 865.507 0 0 0 681.15 75.975 Q 677.1 84 671.775 90.9 Q 666.45 97.8 658.8 101.85 A 1.322 1.322 0 0 1 658.486 101.958 Q 658.289 102 658.05 102 Z M 684.73 105.288 Q 684.293 105.264 684 105.193 A 1.897 1.897 0 0 1 683.85 105.15 Q 682.165 104.548 681.301 103.463 A 3.985 3.985 0 0 1 680.925 102.9 A 6.649 6.649 0 0 1 680.166 100.511 A 8.404 8.404 0 0 1 680.1 99.45 Q 680.1 96.9 681.15 94.125 Q 682.2 91.35 683.475 88.8 A 202.796 202.796 0 0 1 684.08 87.6 Q 684.67 86.44 685.12 85.599 A 51.023 51.023 0 0 1 685.5 84.9 Q 687.15 81.75 688.875 78.6 A 56.465 56.465 0 0 1 690.131 76.417 Q 690.742 75.411 691.322 74.571 A 25.801 25.801 0 0 1 692.1 73.5 Q 692.535 72.92 693.25 72.901 A 1.838 1.838 0 0 1 693.3 72.9 A 1.49 1.49 0 0 1 694.2 73.208 Q 694.405 73.359 694.596 73.584 A 3.043 3.043 0 0 1 694.65 73.65 Q 695.25 74.4 694.5 75.3 A 58.305 58.305 0 0 0 688.81 84.502 A 63.957 63.957 0 0 0 688.65 84.825 A 361.303 361.303 0 0 0 684.133 94.33 A 330.285 330.285 0 0 0 683.85 94.95 Q 682.95 96.9 682.95 99 Q 682.95 101.957 685.065 102.138 A 3.34 3.34 0 0 0 685.35 102.15 A 3.111 3.111 0 0 0 686.108 102.043 Q 687.183 101.77 688.8 100.8 Q 693.9 97.5 697.95 92.7 A 2012.582 2012.582 0 0 0 704.808 84.53 A 1810.819 1810.819 0 0 0 705.75 83.4 A 1.854 1.854 0 0 1 706.046 83.084 A 1.153 1.153 0 0 1 706.8 82.8 A 1.558 1.558 0 0 1 708.024 83.355 A 2.211 2.211 0 0 1 708.225 83.625 Q 708.702 84.374 708.128 85.185 A 2.66 2.66 0 0 1 708 85.35 A 68.245 68.245 0 0 1 707.377 86.137 Q 706.294 87.487 704.325 89.85 A 113.665 113.665 0 0 1 701.494 93.113 A 152.368 152.368 0 0 1 698.25 96.6 Q 694.8 100.2 691.35 102.75 A 18.344 18.344 0 0 1 689.368 104.039 Q 688.34 104.611 687.388 104.923 A 7.017 7.017 0 0 1 685.2 105.3 A 8.676 8.676 0 0 1 684.73 105.288 Z M 677.4 113.7 A 25.6 25.6 0 0 1 674.55 113.025 Q 671.25 112.05 669.3 109.2 Q 669.07 108.739 669.016 108.455 A 0.846 0.846 0 0 1 669 108.3 Q 669 106.8 670.5 106.8 A 1.506 1.506 0 0 1 671.128 106.927 Q 671.458 107.077 671.7 107.4 A 6.981 6.981 0 0 0 674.578 109.777 A 9.123 9.123 0 0 0 675.6 110.175 Q 678.15 111 680.7 111 A 22.109 22.109 0 0 0 684.503 110.649 Q 686.847 110.239 689.475 109.35 A 30.926 30.926 0 0 0 694.983 106.829 A 41.263 41.263 0 0 0 699.3 103.95 Q 699.549 103.702 700.003 103.659 A 2.11 2.11 0 0 1 700.2 103.65 Q 701.7 103.65 701.7 105.15 A 1.506 1.506 0 0 1 701.573 105.778 Q 701.424 106.107 701.1 106.35 A 41.407 41.407 0 0 1 695.584 109.973 A 32.232 32.232 0 0 1 690.525 112.2 A 37.26 37.26 0 0 1 685.869 113.462 Q 683.33 113.966 681.009 113.998 A 22.714 22.714 0 0 1 680.7 114 A 19.207 19.207 0 0 1 677.4 113.7 Z" id="8" vector-effect="non-scaling-stroke"/><path d="M 738.803 100.3 Q 737.958 100.128 737.863 99.357 A 1.681 1.681 0 0 1 737.85 99.15 A 1.786 1.786 0 0 1 738.246 98.03 A 2.454 2.454 0 0 1 738.45 97.8 A 21.562 21.562 0 0 0 741.45 93.736 A 17.101 17.101 0 0 0 743.25 89.1 Q 744.3 84.45 744.3 79.8 Q 744.3 76.65 744.075 73.8 A 76.385 76.385 0 0 1 743.907 71.063 A 58.764 58.764 0 0 1 743.85 68.55 Q 743.85 64.899 744.757 62.948 A 5.34 5.34 0 0 1 745.05 62.4 Q 745.5 61.8 747.3 61.05 A 15.044 15.044 0 0 0 750.44 59.259 A 16.919 16.919 0 0 0 750.75 59.025 A 4.527 4.527 0 0 0 751.788 57.926 A 3.8 3.8 0 0 0 752.4 55.8 A 3.831 3.831 0 0 0 752.136 54.422 A 4.704 4.704 0 0 0 751.95 54 Q 751.806 53.423 751.038 52.846 A 5.082 5.082 0 0 0 750.975 52.8 Q 750.341 52.339 749.309 52.232 A 6.41 6.41 0 0 0 748.65 52.2 A 6.201 6.201 0 0 0 747.569 52.305 Q 746.363 52.52 744.75 53.175 A 16.6 16.6 0 0 0 743.148 53.938 Q 741.272 54.947 738.9 56.7 A 136.961 136.961 0 0 0 734.846 59.842 Q 730.982 62.945 726.225 67.125 Q 718.881 73.579 708.38 84.951 A 473.252 473.252 0 0 0 708.15 85.2 A 1.568 1.568 0 0 1 707.687 85.527 A 1.409 1.409 0 0 1 707.1 85.65 Q 706.387 85.65 705.877 84.903 A 2.896 2.896 0 0 1 705.825 84.825 Q 705.349 84.076 705.923 83.265 A 2.66 2.66 0 0 1 706.05 83.1 A 210.576 210.576 0 0 0 707.067 81.989 Q 708.728 80.164 711.393 77.174 A 1296.891 1296.891 0 0 0 711.525 77.025 Q 715.197 72.904 720.066 68.109 A 328.246 328.246 0 0 1 720.075 68.1 Q 724.95 63.3 730.2 58.95 Q 735.45 54.6 740.325 51.75 A 27.519 27.519 0 0 1 743.262 50.247 Q 744.817 49.574 746.239 49.237 A 11.77 11.77 0 0 1 748.95 48.9 A 6.027 6.027 0 0 1 751.772 49.544 Q 753.044 50.205 753.95 51.546 A 8.892 8.892 0 0 1 754.65 52.8 Q 754.95 53.4 755.1 54.075 A 6.403 6.403 0 0 1 755.245 55.221 A 7.296 7.296 0 0 1 755.25 55.5 A 7.57 7.57 0 0 1 754.378 58.979 A 10.639 10.639 0 0 1 753.225 60.75 Q 751.2 63.3 747.3 64.5 A 6.471 6.471 0 0 0 747.083 65.378 Q 746.907 66.341 746.864 67.746 A 31.32 31.32 0 0 0 746.85 68.7 A 64.47 64.47 0 0 0 746.938 72.005 A 76.494 76.494 0 0 0 747.075 74.1 A 115.039 115.039 0 0 1 747.174 75.441 Q 747.261 76.736 747.288 77.673 A 26.969 26.969 0 0 1 747.3 78.45 Q 747.425 81.939 746.928 85.687 A 50.515 50.515 0 0 1 746.7 87.225 A 26.178 26.178 0 0 1 744.595 93.975 A 31.457 31.457 0 0 1 743.4 96.3 A 39.589 39.589 0 0 0 749.799 92.658 A 45.972 45.972 0 0 0 751.875 91.125 A 36.385 36.385 0 0 0 758.034 84.944 A 42.017 42.017 0 0 0 759.3 83.25 A 1.854 1.854 0 0 1 759.596 82.934 A 1.153 1.153 0 0 1 760.35 82.65 A 1.21 1.21 0 0 1 761.162 82.967 Q 761.338 83.12 761.495 83.346 A 2.987 2.987 0 0 1 761.625 83.55 A 2.017 2.017 0 0 1 761.784 83.885 Q 761.995 84.474 761.692 84.994 A 1.687 1.687 0 0 1 761.55 85.2 A 36.965 36.965 0 0 1 756.273 91.162 A 43.031 43.031 0 0 1 754.5 92.7 A 51.65 51.65 0 0 1 749.864 96.112 A 40.563 40.563 0 0 1 746.175 98.25 A 28.073 28.073 0 0 1 743.852 99.312 Q 741.483 100.256 739.698 100.342 A 7.304 7.304 0 0 1 739.35 100.35 A 2.752 2.752 0 0 1 738.803 100.3 Z M 720.9 105 A 16.297 16.297 0 0 0 721.804 105.026 Q 722.7 105.026 723.534 104.922 A 10.231 10.231 0 0 0 729.6 102.075 Q 732.9 98.85 734.55 93.75 Q 736.2 88.65 736.725 83.325 A 226.656 226.656 0 0 0 737.017 80.151 Q 737.144 78.64 737.235 77.284 A 113.516 113.516 0 0 0 737.4 74.25 Q 737.4 72.75 735.9 72.75 Q 734.4 72.75 734.4 74.25 Q 734.25 77.7 734.1 80.1 A 28.613 28.613 0 0 1 734.088 80.283 Q 733.922 82.691 733.2 87.6 Q 732.15 95.25 728.55 98.625 A 18.005 18.005 0 0 1 727.216 99.764 Q 726.032 100.675 724.864 101.215 A 7.968 7.968 0 0 1 721.5 102 Q 719.1 102 717.3 100.35 A 5.319 5.319 0 0 1 715.748 97.8 A 7.268 7.268 0 0 1 715.5 95.85 A 8.14 8.14 0 0 1 715.562 94.868 A 10.418 10.418 0 0 1 715.8 93.6 A 13.614 13.614 0 0 1 716.147 92.442 A 17.785 17.785 0 0 1 716.7 91.05 A 37.081 37.081 0 0 1 717.635 89.239 Q 718.489 87.685 719.595 85.982 A 75.932 75.932 0 0 1 721.95 82.575 A 71.76 71.76 0 0 1 722.828 81.398 A 79.037 79.037 0 0 1 729.825 73.425 A 65.981 65.981 0 0 1 729.843 73.408 Q 732.046 71.206 734.232 69.431 A 42.554 42.554 0 0 1 738.6 66.3 A 2.017 2.017 0 0 0 738.874 66.105 A 1.271 1.271 0 0 0 739.35 65.1 A 3.243 3.243 0 0 0 739.35 65.046 Q 739.331 63.945 738.559 63.682 A 1.733 1.733 0 0 0 738 63.6 A 0.846 0.846 0 0 0 737.845 63.616 Q 737.654 63.652 737.382 63.769 A 5.308 5.308 0 0 0 737.1 63.9 A 53.756 53.756 0 0 0 732.724 67.059 A 69.721 69.721 0 0 0 727.725 71.475 Q 723 76.05 719.325 80.925 Q 717.143 83.82 715.622 86.423 A 35.031 35.031 0 0 0 713.85 89.85 A 15.68 15.68 0 0 0 713.23 91.256 A 12.77 12.77 0 0 0 712.35 95.85 A 11.586 11.586 0 0 0 712.384 96.746 A 8.679 8.679 0 0 0 714.825 102.3 Q 717.3 104.85 720.9 105 Z M 719.823 114.099 Q 718.36 113.986 716.4 113.625 A 22.501 22.501 0 0 1 711.769 112.227 A 25.868 25.868 0 0 1 710.7 111.75 Q 707.85 110.4 705.9 107.85 A 9.257 9.257 0 0 1 704.202 104.029 A 13.067 13.067 0 0 1 703.95 101.4 L 703.95 100.275 A 4.177 4.177 0 0 1 703.998 99.661 A 5.358 5.358 0 0 1 704.1 99.15 A 1.589 1.589 0 0 1 704.265 98.597 Q 704.605 97.957 705.58 97.95 A 3.009 3.009 0 0 1 705.6 97.95 Q 706.877 97.95 707.067 98.927 A 1.951 1.951 0 0 1 707.1 99.3 A 8.54 8.54 0 0 1 707.071 100.021 A 7.096 7.096 0 0 1 707.025 100.425 A 11.181 11.181 0 0 0 706.992 100.673 Q 706.95 101.025 706.95 101.25 A 9.433 9.433 0 0 0 707.287 103.839 A 6.996 6.996 0 0 0 709.35 107.175 A 13.508 13.508 0 0 0 714.399 110.038 A 15.998 15.998 0 0 0 715.125 110.25 A 29.654 29.654 0 0 0 717.949 110.865 Q 719.357 111.097 720.623 111.14 A 16.857 16.857 0 0 0 721.2 111.15 Q 727.95 111.15 733.575 109.425 A 54.728 54.728 0 0 0 738.673 107.596 A 39.904 39.904 0 0 0 743.325 105.3 A 54.681 54.681 0 0 0 745.94 103.685 Q 747.153 102.885 748.139 102.12 A 22.495 22.495 0 0 0 749.7 100.8 A 1.568 1.568 0 0 1 750.163 100.473 A 1.409 1.409 0 0 1 750.75 100.35 A 1.498 1.498 0 0 1 751.944 100.919 A 2.361 2.361 0 0 1 752.175 101.25 A 1.567 1.567 0 0 1 752.304 101.526 Q 752.56 102.267 751.8 102.9 A 23.578 23.578 0 0 1 749.893 104.491 Q 747.828 106.052 744.825 107.775 A 47.195 47.195 0 0 1 739.228 110.491 A 61.535 61.535 0 0 1 734.25 112.275 A 41.093 41.093 0 0 1 725.858 113.928 A 50.859 50.859 0 0 1 721.05 114.15 A 16.054 16.054 0 0 1 719.823 114.099 Z" id="9" vector-effect="non-scaling-stroke"/></g></svg>